<svg width="44" height="44" viewBox="0 0 44 44" fill="none" xmlns="http://www.w3.org/2000/svg">
<mask id="mask0_181_7077" style="mask-type:luminance" maskUnits="userSpaceOnUse" x="0" y="0" width="44" height="44">
<path d="M44 0H0V44H44V0Z" fill="white"/>
</mask>
<g mask="url(#mask0_181_7077)">
<path d="M34.2114 0H9.78859C4.38247 0 0 4.38247 0 9.78859V34.2114C0 39.6176 4.38247 44 9.78859 44H34.2114C39.6176 44 44 39.6176 44 34.2114V9.78859C44 4.38247 39.6176 0 34.2114 0Z" fill="url(#paint0_linear_181_7077)"/>
<path d="M20.6568 38.5201C19.3442 38.0509 19.0626 37.4129 18.5242 33.6743C17.898 29.3285 17.7616 26.6387 18.1238 25.7865C18.605 24.6573 19.9102 24.0163 21.7362 24.0091C23.5476 24.0017 24.8646 24.6485 25.3486 25.7865C25.7124 26.6373 25.576 29.3285 24.9498 33.6743C24.5244 36.7103 24.2898 37.4773 23.703 37.9937C22.8964 38.7079 21.7524 38.9059 20.667 38.5217L20.6568 38.5201ZM15.0498 34.0615C10.5178 31.8321 7.61375 28.0599 6.55775 23.0411C6.29375 21.7459 6.24975 18.6557 6.49897 17.4677C7.15897 14.2777 8.42036 11.7829 10.5178 9.57705C13.539 6.39145 17.4258 4.70764 21.7524 4.70764C26.035 4.70764 29.907 6.36065 32.855 9.45086C35.099 11.7829 36.3604 14.2513 37.0058 17.5029C37.2258 18.5853 37.2258 21.5363 37.0204 22.7535C36.3458 26.6021 34.2044 30.1073 31.0804 32.4629C29.9658 33.3047 27.2378 34.7743 26.7978 34.7743C26.6364 34.7743 26.6218 34.6071 26.695 33.9309C26.827 32.8457 26.959 32.6197 27.575 32.3617C28.5578 31.9509 30.2298 30.7601 31.2564 29.7305C33.031 27.9705 34.3364 25.6677 34.9378 23.2477C35.319 21.7371 35.275 18.3785 34.8498 16.8239C33.515 11.8811 29.4818 8.03846 24.539 7.01185C23.1018 6.71846 20.491 6.71846 19.039 7.01185C14.0378 8.03846 9.90175 12.0719 8.64036 17.1465C8.30297 18.5251 8.30297 21.8839 8.64036 23.2625C9.47636 26.6211 11.647 29.7011 14.4924 31.5345C15.0498 31.9011 15.7244 32.2825 16.003 32.3997C16.619 32.6637 16.751 32.8837 16.8684 33.9691C16.9418 34.6291 16.927 34.8197 16.7658 34.8197C16.663 34.8197 15.915 34.4971 15.123 34.1157L15.0498 34.0615ZM15.1084 28.0951C13.583 26.8777 12.2338 24.7189 11.6764 22.6011C11.339 21.3221 11.339 18.8903 11.691 17.6143C12.615 14.1707 15.1524 11.5013 18.6724 10.2473C19.875 9.82187 22.5444 9.72665 24.0258 10.0537C29.1298 11.1903 32.7524 16.3017 32.0484 21.3719C31.7698 23.4151 31.0658 25.0929 29.819 26.6519C29.203 27.4395 27.707 28.7609 27.443 28.7609C27.399 28.7609 27.355 28.2623 27.355 27.6551V26.5463L28.1178 25.6371C30.9924 22.1933 30.787 17.3827 27.6484 14.2263C26.431 12.9973 25.023 12.2757 23.2044 11.9427C22.031 11.7257 21.7818 11.7257 20.5498 11.9281C18.6798 12.2331 17.2306 12.9577 15.9444 14.2307C12.791 17.3547 12.5858 22.1903 15.4604 25.6371L16.2172 26.5463V27.6609C16.2172 28.2769 16.1688 28.7757 16.1086 28.7757C16.05 28.7757 15.6246 28.4823 15.17 28.1157L15.1084 28.0951ZM20.1978 22.1067C18.8924 21.4995 18.1884 20.3541 18.1738 18.8611C18.1738 17.5191 18.9218 16.3487 20.2124 15.6637C21.0338 15.2325 22.4858 15.2325 23.307 15.6667C24.2018 16.1315 24.935 17.0335 25.2138 17.9751C26.0644 20.8675 22.999 23.4017 20.227 22.1067H20.1978Z" fill="white"/>
<path d="M21.985 22.6761C24.0053 22.6761 25.6429 21.0384 25.6429 19.0183C25.6429 16.9982 24.0053 15.3605 21.985 15.3605C19.9648 15.3605 18.3271 16.9982 18.3271 19.0183C18.3271 21.0384 19.9648 22.6761 21.985 22.6761Z" fill="white"/>
<path d="M22.3357 24.0925C22.5893 24.1263 23.0939 24.1923 23.5603 24.3419C24.0296 24.4885 24.4549 24.7187 24.7865 24.9549C25.1091 25.1895 25.3437 25.4331 25.4904 25.7293C25.6371 26.0255 25.7104 26.3775 25.7544 26.9539C25.7837 27.5319 25.7837 28.3327 25.6517 29.8287C25.5197 31.3203 25.2557 33.5071 25.0504 34.9077C24.8451 36.3157 24.6985 36.9317 24.5077 37.3863C24.3171 37.8557 24.0677 38.1637 23.7891 38.3837C23.5105 38.6037 23.1877 38.7357 22.8797 38.8091C22.5717 38.8823 22.2931 38.8823 22.0291 38.8823C21.7651 38.8823 21.5157 38.8823 21.1784 38.8091C20.8411 38.7357 20.4011 38.6037 20.0784 38.3397C19.7411 38.0757 19.5211 37.6943 19.3451 37.1957C19.1691 36.6971 19.0371 36.0957 18.8611 34.8931C18.6851 33.6903 18.4504 31.9011 18.3037 30.5371C18.1571 29.1731 18.0985 28.2343 18.0867 27.6037C18.0721 26.9731 18.1013 26.6607 18.1747 26.3571C18.248 26.0637 18.3653 25.7851 18.5267 25.5503C18.6881 25.3157 18.8992 25.1103 19.1133 24.9491C19.3231 24.7877 19.5387 24.6703 19.7968 24.5795C20.052 24.4767 20.3585 24.3887 20.7355 24.3155C21.1168 24.2421 21.5569 24.1687 21.7827 24.1395C22.0085 24.1057 22.0085 24.1057 22.2609 24.1395L22.3357 24.0925Z" fill="white"/>
</g>
<defs>
<linearGradient id="paint0_linear_181_7077" x1="21.9546" y1="44.5588" x2="21.582" y2="1.38601e-06" gradientUnits="userSpaceOnUse">
<stop stop-color="#822CBE"/>
<stop offset="1" stop-color="#D772FB"/>
</linearGradient>
</defs>
</svg>
