<svg width="84" height="68" viewBox="0 0 84 68" fill="none" xmlns="http://www.w3.org/2000/svg">
<path d="M74.8828 16.9669C79.5681 16.9669 83.3663 13.1687 83.3663 8.48344C83.3663 3.79817 79.5681 0 74.8828 0C70.1976 0 66.3994 3.79817 66.3994 8.48344C66.3994 13.1687 70.1976 16.9669 74.8828 16.9669Z" fill="#FFB210"/>
<path d="M8.4927 60.0001C13.178 60.0001 16.9761 56.2019 16.9761 51.5166C16.9761 46.8314 13.178 43.0332 8.4927 43.0332C3.80743 43.0332 0.00927734 46.8314 0.00927734 51.5166C0.00927734 56.2019 3.80743 60.0001 8.4927 60.0001Z" fill="#FFB210"/>
<path d="M6.95857 16.6809V4.78934H0V0.285889H19.8032V4.78934H12.8446V16.6809H6.95857Z" fill="#E70526"/>
<path d="M21.6382 16.6809V0.285889H27.5242V6.10083H36.2708V0.285889H42.1569V16.6809H36.2708V10.6043H27.5242V16.6809H21.6382Z" fill="#E70526"/>
<path d="M44.2529 16.6809V0.285889H61.7688V4.36118H50.1632V6.48204H60.1714V10.3425H50.1632V12.6071H61.9594V16.6824H44.2529V16.6809Z" fill="#E70526"/>
<path d="M0.0161133 38.1983V21.8032H5.13974L13.2419 28.6423C13.3372 28.722 13.4724 28.8415 13.6473 28.9994C13.8223 29.1587 14.0044 29.3251 14.195 29.5001C14.3856 29.675 14.5605 29.8343 14.7199 29.9766H14.9588V21.8032H20.4878V38.1983H15.4126L7.71577 31.7404C7.3815 31.4701 7.02873 31.1686 6.65463 30.8343C6.28053 30.5 5.98324 30.2312 5.76134 30.0235H5.54655V38.1969H0.0161133V38.1983Z" fill="#E70526"/>
<path d="M22.8223 38.1983V21.8032H40.3382V25.8785H28.7325V27.9994H38.7408V31.8599H28.7325V34.1244H40.5288V38.1997H22.8223V38.1983Z" fill="#E70526"/>
<path d="M41.1244 38.1983L48.9407 29.739L41.8385 21.8032H49.44L52.6575 25.6879H52.8481L56.279 21.8032H63.2376L56.0884 29.5001L63.8806 38.1983H56.3018L52.3929 33.5753H52.1782L48.127 38.1983H41.1201H41.1244Z" fill="#E70526"/>
<path d="M70.5308 38.1983V26.3067H63.5723V21.8032H83.3755V26.3067H76.4169V38.1983H70.5308Z" fill="#E70526"/>
<path d="M21.5186 59.7141L29.4543 43.3191H35.9364L43.8722 59.7141H37.5565L36.5793 57.5449H28.5482L27.5952 59.7141H21.5186ZM30.3363 53.4711H34.7928L33.6491 50.7073C33.6007 50.5807 33.5382 50.4085 33.4585 50.1952C33.3788 49.9804 33.2921 49.7386 33.1968 49.4683C33.1015 49.198 33.0104 48.9278 32.9222 48.6575C32.8355 48.3873 32.7516 48.1412 32.6719 47.9193H32.5055C32.4102 48.1895 32.2992 48.4996 32.1712 48.8481C32.0446 49.198 31.9208 49.5394 31.8014 49.8723C31.6819 50.2065 31.5752 50.4839 31.4799 50.7058L30.3363 53.4696V53.4711Z" fill="#E70526"/>
<path d="M53.189 60C50.822 60 48.8591 59.6786 47.3029 59.0356C45.7453 58.3927 44.5818 57.4425 43.8122 56.1879C43.0413 54.9333 42.6572 53.3757 42.6572 51.5166C42.6572 48.7997 43.5548 46.7073 45.3499 45.2365C47.145 43.7671 49.7737 43.0317 53.2373 43.0317C55.1434 43.0317 56.8204 43.329 58.2656 43.925C59.7108 44.521 60.8431 45.3475 61.661 46.4029C62.4789 47.4598 62.8886 48.6788 62.8886 50.0614H57.1689C57.1689 49.4896 57.0025 48.9818 56.6682 48.5366C56.334 48.0914 55.866 47.7429 55.2629 47.4882C54.6583 47.2351 53.9528 47.107 53.142 47.107C52.125 47.107 51.2872 47.2905 50.6286 47.6547C49.9686 48.0202 49.4849 48.5124 49.1748 49.1326C48.8647 49.7514 48.7097 50.4427 48.7097 51.2051V51.8011C48.7097 52.5322 48.8647 53.2107 49.1748 53.838C49.4849 54.4653 49.9572 54.9703 50.593 55.3515C51.2288 55.7327 52.0382 55.9233 53.024 55.9233C53.93 55.9233 54.7039 55.8038 55.3468 55.5663C55.9897 55.3273 56.4819 54.9945 56.8247 54.5649C57.1661 54.1353 57.3368 53.636 57.3368 53.0642H62.89C62.89 54.3985 62.5045 55.5905 61.7335 56.6388C60.9626 57.6872 59.8545 58.5093 58.4093 59.1053C56.9641 59.7013 55.2245 59.9986 53.1904 59.9986L53.189 60Z" fill="#E70526"/>
<path d="M70.5147 59.7141V47.8225H63.5562V43.3191H83.3593V47.8225H76.4008V59.7141H70.5147Z" fill="#E70526"/>
</svg>
