<svg width="304" height="20" viewBox="0 0 304 20" fill="none" xmlns="http://www.w3.org/2000/svg">
<path d="M8.20252 19.6629V5.64543H0V0.336914H23.3433V5.64543H15.1408V19.6629H8.20252Z" fill="#E70526"/>
<path d="M25.5068 19.6629V0.336914H32.4451V7.19137H42.7553V0.336914H49.6936V19.6629H42.7553V12.4999H32.4451V19.6629H25.5068Z" fill="#E70526"/>
<path d="M52.165 19.6629V0.336914H72.8122V5.14074H59.1318V7.64074H70.9292V12.1914H59.1318V14.8607H73.0369V19.6645H52.165V19.6629Z" fill="#E70526"/>
<path d="M88.1015 20C93.6244 20 98.1015 15.5228 98.1015 10C98.1015 4.47715 93.6244 0 88.1015 0C82.5787 0 78.1016 4.47715 78.1016 10C78.1016 15.5228 82.5787 20 88.1015 20Z" fill="#FFB210"/>
<path d="M103.346 19.6629V0.336914H109.385L118.936 8.39862C119.048 8.49251 119.207 8.63336 119.414 8.81948C119.62 9.00727 119.835 9.20345 120.059 9.40968C120.284 9.61592 120.49 9.80371 120.678 9.97139H120.96V0.336914H127.477V19.6629H121.495L112.422 12.0505C112.028 11.732 111.612 11.3765 111.171 10.9825C110.73 10.5884 110.38 10.2715 110.118 10.0267H109.865V19.6612H103.347L103.346 19.6629Z" fill="#E70526"/>
<path d="M130.229 19.6629V0.336914H150.876V5.14074H137.195V7.64074H148.993V12.1914H137.195V14.8607H151.1V19.6645H130.229V19.6629Z" fill="#E70526"/>
<path d="M151.802 19.6629L161.015 9.69137L152.644 0.336914H161.604L165.397 4.91606H165.621L169.666 0.336914H177.868L169.441 9.40968L178.626 19.6629H169.693L165.085 14.2135H164.832L160.056 19.6629H151.797H151.802Z" fill="#E70526"/>
<path d="M186.466 19.6629V5.64543H178.264V0.336914H201.607V5.64543H193.404V19.6629H186.466Z" fill="#E70526"/>
<path d="M216.505 20C222.028 20 226.505 15.5228 226.505 10C226.505 4.47715 222.028 0 216.505 0C210.982 0 206.505 4.47715 206.505 10C206.505 15.5228 210.982 20 216.505 20Z" fill="#FFB210"/>
<path d="M229.133 19.6629L238.487 0.336914H246.128L255.482 19.6629H248.038L246.886 17.1059H237.419L236.296 19.6629H229.133ZM239.527 12.3037H244.78L243.432 9.04583C243.375 8.89661 243.301 8.69372 243.207 8.44221C243.113 8.18903 243.011 7.90398 242.899 7.58541C242.786 7.26683 242.679 6.94825 242.575 6.62967C242.473 6.31109 242.374 6.02102 242.28 5.75945H242.084C241.971 6.07803 241.841 6.44355 241.69 6.85435C241.541 7.26683 241.395 7.66924 241.254 8.0616C241.113 8.45563 240.987 8.78259 240.875 9.04416L239.527 12.302V12.3037Z" fill="#E70526"/>
<path d="M266.465 20C263.675 20 261.361 19.6211 259.527 18.8632C257.691 18.1053 256.319 16.9852 255.412 15.5064C254.503 14.0275 254.051 12.1915 254.051 10C254.051 6.79745 255.109 4.33099 257.225 2.59725C259.339 0.866868 262.439 0 266.522 0C268.769 0 270.746 0.350436 272.449 1.05298C274.153 1.75553 275.488 2.72971 276.452 3.97384C277.416 5.21965 277.899 6.65661 277.899 8.28638H271.157C271.157 7.61234 270.961 7.01375 270.566 6.48893C270.172 5.96412 269.621 5.55332 268.91 5.25319C268.197 4.95473 267.366 4.80382 266.41 4.80382C265.211 4.80382 264.223 5.02012 263.447 5.44936C262.669 5.88028 262.099 6.46043 261.734 7.19148C261.368 7.92086 261.185 8.73575 261.185 9.63447V10.337C261.185 11.1989 261.368 11.9987 261.734 12.7381C262.099 13.4775 262.656 14.0728 263.405 14.5221C264.155 14.9715 265.109 15.1962 266.271 15.1962C267.339 15.1962 268.251 15.0553 269.009 14.7753C269.767 14.4936 270.347 14.1013 270.751 13.5949C271.153 13.0885 271.355 12.5 271.355 11.826H277.9C277.9 13.3987 277.446 14.8038 276.537 16.0396C275.629 17.2753 274.322 18.2445 272.619 18.947C270.915 19.6496 268.865 20 266.467 20H266.465Z" fill="#E70526"/>
<path d="M286.888 19.6629V5.64543H278.686V0.336914H302.029V5.64543H293.826V19.6629H286.888Z" fill="#E70526"/>
</svg>
