<svg width="351" height="635" viewBox="0 0 351 635" fill="none" xmlns="http://www.w3.org/2000/svg">
<path d="M24.348 87.361V45.756H0V30H69.2889V45.756H44.9409V87.361H24.348Z" fill="#E70526"/>
<path d="M75.7114 87.361V30H96.3043V50.3437H126.905V30H147.498V87.3671H126.905V66.1058H96.3043V87.3671H75.7114V87.361Z" fill="#E70526"/>
<path d="M154.838 87.361V30H216.125V44.2552H175.516V51.6744H210.534V65.1822H175.516V73.1058H216.793V87.3671H154.838V87.361Z" fill="#E70526"/>
<rect width="116.667" height="116.667" transform="translate(233.333)" fill="#FFB210"/>
<path d="M291.667 14.916C296.018 26.37 309.527 31.2858 320.223 25.3085C316.194 36.8801 323.382 49.3279 335.417 51.6255C324.893 57.9002 322.397 72.056 330.14 81.5509C318.045 79.5917 307.032 88.8336 306.861 101.084C298.855 91.8098 284.48 91.8098 276.473 101.084C276.302 88.8336 265.289 79.5917 253.194 81.5509C260.938 72.056 258.441 57.8984 247.917 51.6255C259.952 49.3297 267.14 36.8801 263.111 25.3085C273.807 31.2858 287.316 26.3682 291.667 14.916Z" fill="#F95379"/>
<rect width="116.667" height="116.667" transform="translate(0 116.667)" fill="#F95379"/>
<path d="M102.083 156.955C102.083 142.574 90.4259 130.917 76.0449 130.917C69.2035 130.917 62.9801 133.556 58.3335 137.869C53.6869 133.555 47.4634 130.917 40.622 130.917C26.2411 130.917 14.5835 142.574 14.5835 156.955C14.5835 163.797 17.2231 170.02 21.5361 174.667C17.2213 179.313 14.5835 185.537 14.5835 192.378C14.5835 206.759 26.2411 218.417 40.622 218.417C47.4634 218.417 53.6869 215.777 58.3335 211.464C62.9801 215.779 69.2035 218.417 76.0449 218.417C90.4259 218.417 102.083 206.759 102.083 192.378C102.083 185.537 99.4439 179.313 95.1309 174.667C99.4457 170.02 102.083 163.797 102.083 156.955Z" fill="#E70526"/>
<rect width="116.667" height="116.667" transform="translate(116.667 116.667)" fill="#6E5FC1"/>
<path d="M198.247 177.968C194.593 176.782 191.092 175.838 187.964 175.167C191.092 174.495 194.593 173.552 198.247 172.366C210.315 168.444 219.474 163.341 218.703 160.966C217.932 158.592 207.523 159.846 195.454 163.768C191.8 164.954 188.412 166.25 185.488 167.545C187.624 165.163 189.902 162.342 192.162 159.235C199.62 148.968 204.03 139.457 202.009 137.989C199.989 136.521 192.307 143.655 184.848 153.921C182.59 157.029 180.612 160.069 179.005 162.837C179.334 159.655 179.519 156.032 179.519 152.191C179.519 139.501 177.495 129.216 174.999 129.216C172.502 129.216 170.478 139.503 170.478 152.191C170.478 156.034 170.663 159.655 170.992 162.837C169.387 160.069 167.408 157.031 165.149 153.921C157.69 143.655 150.007 136.523 147.988 137.989C145.968 139.455 150.378 148.968 157.836 159.235C160.093 162.342 162.373 165.164 164.509 167.545C161.583 166.25 158.197 164.954 154.543 163.768C142.475 159.846 132.067 158.593 131.295 160.966C130.524 163.341 139.682 168.444 151.751 172.366C155.406 173.552 158.907 174.495 162.035 175.167C158.907 175.838 155.406 176.782 151.751 177.968C139.682 181.89 130.523 186.993 131.295 189.367C132.067 191.742 142.475 190.488 154.544 186.566C158.199 185.38 161.586 184.084 164.511 182.789C162.375 185.171 160.096 187.991 157.837 191.099C150.378 201.366 145.968 210.877 147.989 212.345C150.008 213.812 157.692 206.679 165.151 196.412C167.408 193.305 169.387 190.265 170.993 187.497C170.665 190.679 170.48 194.302 170.48 198.142C170.48 210.833 172.504 221.118 175 221.118C177.496 221.118 179.52 210.831 179.52 198.142C179.52 194.3 179.335 190.679 179.007 187.497C180.612 190.265 182.59 193.303 184.849 196.412C192.308 206.679 199.992 213.811 202.011 212.345C204.03 210.877 199.62 201.366 192.163 191.099C189.905 187.991 187.625 185.17 185.489 182.789C188.415 184.084 191.801 185.38 195.456 186.566C207.523 190.488 217.934 191.742 218.705 189.367C219.476 186.993 210.318 181.89 198.249 177.968H198.247Z" fill="#13BF6C"/>
<rect width="116.667" height="116.667" transform="translate(233.333 116.667)" fill="#15D0C6"/>
<path d="M292.512 132.076L301.895 147.895L319.259 141.804C319.962 141.557 320.673 142.153 320.552 142.888L317.563 161.034L334.782 167.521C335.479 167.784 335.64 168.697 335.074 169.182L321.114 181.163L330.133 197.193C330.498 197.842 330.033 198.646 329.289 198.655L310.887 198.865L307.485 216.937C307.348 217.67 306.476 217.987 305.899 217.515L291.667 205.856L277.435 217.515C276.859 217.987 275.987 217.67 275.849 216.937L272.446 198.865L254.045 198.655C253.299 198.646 252.835 197.844 253.201 197.193L262.219 181.163L248.259 169.182C247.693 168.697 247.856 167.784 248.552 167.521L265.77 161.034L262.782 142.888C262.661 142.153 263.371 141.557 264.074 141.804L281.438 147.895L290.823 132.076C291.203 131.436 292.13 131.436 292.51 132.076H292.512Z" fill="#02AA9A"/>
<path d="M29.0061 320.373V263.006H46.9314L75.2837 286.935C75.6179 287.214 76.0919 287.628 76.6995 288.187C77.3132 288.746 77.9513 289.329 78.6197 289.937C79.2881 290.55 79.8957 291.103 80.4547 291.602H81.2872V263H100.628V320.367H82.8671L55.9366 297.769C54.7699 296.827 53.5303 295.77 52.2239 294.603C50.9175 293.437 49.8723 292.489 49.0946 291.766H48.3472V320.367H29L29.0061 320.373Z" fill="#E70526"/>
<path d="M108.801 320.373V263.006H170.088V277.267H129.479V284.687H164.497V298.194H129.479V306.118H170.756V320.379H108.801V320.373Z" fill="#E70526"/>
<path d="M172.834 320.373L200.184 290.775L175.337 263.006H201.934L213.187 276.599H213.856L225.862 263.006H250.211L225.194 289.937L252.459 320.373H225.941L212.27 304.198H211.522L197.346 320.373H172.834Z" fill="#E70526"/>
<path d="M275.731 320.373V278.768H251.383V263.012H320.672V278.768H296.324V320.373H275.731Z" fill="#E70526"/>
<rect width="116.667" height="116.667" transform="translate(0 350)" fill="#EF98FC"/>
<path d="M62.6038 366.862L64.8294 369.596C68.1952 373.73 73.5586 375.683 78.7951 374.679L82.257 374.015C85.6846 373.357 88.8533 376.014 88.8001 379.505L88.7469 383.031C88.6663 388.362 91.5212 393.305 96.1782 395.901L99.2577 397.617C102.306 399.316 103.025 403.389 100.741 406.029L98.4347 408.695C94.9471 412.728 93.956 418.349 95.8542 423.332L97.1092 426.625C98.3524 429.887 96.2845 433.469 92.8381 434.022L89.3574 434.583C84.0934 435.43 79.7211 439.099 77.9722 444.135L76.8165 447.465C75.6711 450.762 71.7874 452.177 68.7902 450.387L65.7639 448.578C61.1875 445.843 55.4795 445.843 50.9031 448.578L47.8768 450.387C44.8796 452.177 40.9959 450.764 39.8505 447.465L38.6948 444.135C36.9476 439.099 32.5736 435.43 27.3096 434.583L23.8289 434.022C20.3825 433.469 18.3146 429.887 19.5577 426.625L20.8128 423.332C22.7109 418.351 21.7199 412.728 18.2323 408.695L15.9261 406.029C13.6422 403.389 14.3606 399.318 17.4093 397.617L20.4888 395.901C25.1457 393.305 27.9989 388.362 27.92 383.031L27.8669 379.505C27.8137 376.014 30.9824 373.357 34.41 374.015L37.8718 374.679C43.1066 375.683 48.4717 373.73 51.8376 369.596L54.0632 366.862C56.2665 364.154 60.4005 364.154 62.6038 366.862Z" fill="#FB6324"/>
<rect width="116.667" height="116.667" transform="translate(116.667 350)" fill="#58C7FF"/>
<path d="M177.743 377.668L178.896 390.673C179.208 394.192 181.51 395.031 184.011 392.535L193.253 383.314C205.342 371.252 207.231 372.837 197.453 386.838L189.975 397.541C187.952 400.438 189.176 402.559 192.697 402.255L205.705 401.131C222.719 399.662 223.146 402.092 206.656 406.529L194.048 409.923C190.637 410.842 190.212 413.253 193.104 415.283L203.791 422.785C217.769 432.597 216.534 434.733 201.05 427.534L189.211 422.029C186.007 420.539 184.131 422.115 185.041 425.527L188.405 438.142C192.807 454.643 190.488 455.487 183.254 440.018L177.722 428.192C176.224 424.991 173.776 424.991 172.278 428.192L166.746 440.018C159.512 455.487 157.193 454.643 161.595 438.142L164.959 425.527C165.869 422.115 163.993 420.539 160.789 422.029L148.95 427.534C133.464 434.733 132.231 432.597 146.209 422.785L156.896 415.283C159.788 413.253 159.363 410.842 155.952 409.923L143.344 406.529C126.854 402.09 127.281 399.662 144.295 401.131L157.303 402.255C160.824 402.559 162.048 400.438 160.025 397.541L152.547 386.838C142.769 372.839 144.658 371.253 156.747 383.314L165.989 392.535C168.49 395.031 170.792 394.192 171.104 390.673L172.257 377.668C173.765 360.657 176.231 360.657 177.739 377.668H177.743Z" fill="#1E9BFF"/>
<rect width="116.667" height="116.667" transform="translate(233.333 350)" fill="#13BF6C"/>
<path d="M334.119 394.763C329.834 392.1 315.562 387.485 306.057 390.573C306.052 390.575 306.046 390.578 306.04 390.579C305.255 380.897 297.115 369.756 293.444 366.662C292.418 365.797 290.919 365.797 289.893 366.662C286.224 369.756 278.082 380.899 277.297 390.579C277.291 390.578 277.285 390.575 277.28 390.573C267.775 387.485 253.505 392.1 249.218 394.763C248.078 395.471 247.614 396.898 248.121 398.142C250.011 402.786 258.749 414.791 268.188 417.968C267.677 418.578 267.171 419.224 266.673 419.909C260.799 427.995 260.778 442.993 261.987 447.892C262.308 449.195 263.521 450.077 264.86 449.979C269.893 449.615 284.15 444.961 290.024 436.876C290.629 436.045 291.174 435.221 291.667 434.407C292.159 435.221 292.705 436.045 293.31 436.876C299.184 444.961 313.442 449.615 318.474 449.979C319.813 450.075 321.026 449.195 321.347 447.892C322.556 442.994 322.535 427.995 316.661 419.909C316.163 419.224 315.657 418.578 315.146 417.968C324.585 414.791 333.323 402.788 335.213 398.142C335.72 396.898 335.256 395.473 334.116 394.763H334.119Z" fill="#EF98FC"/>
<rect width="116.667" height="116.667" transform="translate(0 466.667)" fill="#FB6324"/>
<path d="M59.4328 485.174C67.8468 478.188 80.6708 482.855 82.6246 493.615C82.7717 494.43 83.4805 495.022 84.3077 495.027C95.2439 495.083 102.068 506.902 96.6479 516.401C96.2368 517.12 96.3975 518.03 97.0302 518.564C105.371 525.637 103.003 539.077 92.7437 542.869C91.9673 543.157 91.5055 543.957 91.6459 544.772C93.4897 555.553 83.0356 564.324 72.7389 560.636C71.9591 560.357 71.0913 560.673 70.6734 561.387C65.1571 570.831 51.5093 570.831 45.993 561.387C45.5752 560.672 44.7074 560.357 43.9276 560.636C33.6308 564.324 23.1768 555.553 25.0206 544.772C25.161 543.957 24.6992 543.157 23.9228 542.869C13.6649 539.077 11.295 525.637 19.6363 518.564C20.2672 518.028 20.4279 517.12 20.0186 516.401C14.5987 506.901 21.4226 495.083 32.3588 495.027C33.186 495.022 33.8947 494.43 34.0419 493.615C35.9957 482.855 48.8197 478.186 57.2337 485.174C57.8714 485.703 58.7933 485.703 59.4311 485.174H59.4328Z" fill="#F72605"/>
<path d="M134 553.37L161.763 496.003H184.446L212.209 553.37H190.115L186.694 545.78H158.597L155.261 553.37H134ZM164.85 531.525H180.442L176.437 521.852C176.273 521.408 176.049 520.806 175.769 520.059C175.49 519.312 175.186 518.461 174.851 517.519C174.517 516.577 174.195 515.629 173.891 514.681C173.588 513.74 173.296 512.877 173.016 512.099H172.433C172.099 513.047 171.71 514.129 171.266 515.35C170.823 516.571 170.391 517.768 169.972 518.935C169.553 520.102 169.182 521.074 168.848 521.852L164.844 531.525H164.85Z" fill="#E70526"/>
<path d="M244.815 554.372C236.533 554.372 229.667 553.248 224.222 550.994C218.772 548.739 214.7 545.422 212.009 541.029C209.311 536.635 207.968 531.191 207.968 524.683C207.968 515.18 211.109 507.852 217.392 502.711C223.675 497.57 232.875 495 244.991 495C251.663 495 257.527 496.045 262.582 498.129C267.638 500.214 271.6 503.106 274.462 506.8C277.324 510.501 278.758 514.76 278.758 519.597H258.748C258.748 517.598 258.165 515.818 256.998 514.262C255.831 512.707 254.191 511.485 252.076 510.592C249.962 509.705 247.489 509.255 244.657 509.255C241.096 509.255 238.167 509.893 235.858 511.175C233.549 512.457 231.854 514.177 230.772 516.346C229.691 518.516 229.144 520.934 229.144 523.601V525.686C229.144 528.244 229.685 530.62 230.772 532.813C231.854 535.013 233.507 536.775 235.731 538.106C237.955 539.443 240.786 540.105 244.238 540.105C247.403 540.105 250.114 539.686 252.368 538.853C254.616 538.021 256.342 536.854 257.539 535.353C258.736 533.852 259.331 532.102 259.331 530.097H278.758C278.758 534.764 277.409 538.938 274.711 542.602C272.013 546.272 268.136 549.147 263.08 551.231C258.019 553.315 251.936 554.36 244.821 554.36L244.815 554.372Z" fill="#E70526"/>
<path d="M305.433 553.37V511.765H281.085V496.009H350.374V511.765H326.026V553.37H305.433Z" fill="#E70526"/>
<path d="M344.449 630.124C343.529 630.124 342.719 630.03 342.02 629.843C341.32 629.655 340.741 629.383 340.28 629.025C339.82 628.667 339.47 628.241 339.232 627.746C338.993 627.252 338.874 626.69 338.874 626.059C338.874 625.974 338.874 625.897 338.874 625.829C338.874 625.744 338.882 625.676 338.899 625.624H341.124C341.107 625.693 341.099 625.752 341.099 625.803C341.099 625.854 341.099 625.906 341.099 625.957C341.116 626.553 341.269 627.022 341.559 627.363C341.866 627.704 342.284 627.942 342.812 628.079C343.341 628.215 343.929 628.283 344.577 628.283C345.14 628.283 345.66 628.215 346.138 628.079C346.615 627.925 346.99 627.704 347.263 627.414C347.553 627.107 347.698 626.724 347.698 626.264C347.698 625.701 347.51 625.275 347.135 624.985C346.777 624.678 346.3 624.44 345.703 624.269C345.106 624.099 344.484 623.92 343.836 623.732C343.29 623.579 342.744 623.409 342.199 623.221C341.653 623.034 341.158 622.804 340.715 622.531C340.289 622.258 339.939 621.909 339.666 621.483C339.411 621.039 339.283 620.486 339.283 619.821C339.283 619.224 339.402 618.696 339.641 618.236C339.897 617.776 340.255 617.383 340.715 617.06C341.176 616.736 341.73 616.497 342.378 616.344C343.043 616.173 343.776 616.088 344.577 616.088C345.43 616.088 346.172 616.182 346.803 616.369C347.451 616.557 347.988 616.821 348.414 617.162C348.84 617.503 349.156 617.895 349.36 618.338C349.565 618.764 349.667 619.224 349.667 619.719C349.667 619.821 349.667 619.923 349.667 620.025C349.667 620.111 349.659 620.179 349.642 620.23H347.442V619.949C347.442 619.608 347.348 619.284 347.161 618.977C346.99 618.653 346.683 618.398 346.24 618.21C345.814 618.006 345.217 617.903 344.449 617.903C343.955 617.903 343.529 617.946 343.171 618.031C342.812 618.099 342.514 618.219 342.275 618.389C342.037 618.543 341.858 618.73 341.738 618.952C341.619 619.156 341.559 619.395 341.559 619.667C341.559 620.111 341.704 620.451 341.994 620.69C342.284 620.929 342.668 621.125 343.145 621.278C343.639 621.431 344.168 621.602 344.731 621.789C345.328 621.96 345.933 622.139 346.547 622.326C347.178 622.497 347.749 622.718 348.261 622.991C348.789 623.264 349.207 623.639 349.514 624.116C349.838 624.576 350 625.19 350 625.957C350 626.673 349.863 627.295 349.591 627.823C349.318 628.351 348.926 628.786 348.414 629.127C347.919 629.468 347.331 629.715 346.649 629.868C345.984 630.039 345.251 630.124 344.449 630.124Z" fill="#2C2925"/>
<path d="M335.295 630.125C334.596 630.125 334.05 629.997 333.658 629.741C333.266 629.468 332.984 629.119 332.814 628.693C332.643 628.25 332.558 627.781 332.558 627.287V618.262H330.819V616.37H332.609L333.019 612.612H334.809V616.37H337.341V618.262H334.809V626.954C334.809 627.38 334.886 627.704 335.039 627.926C335.193 628.13 335.483 628.233 335.909 628.233H337.341V629.715C337.171 629.801 336.966 629.869 336.727 629.92C336.489 629.971 336.241 630.014 335.986 630.048C335.747 630.099 335.517 630.125 335.295 630.125Z" fill="#2C2925"/>
<path d="M317.738 629.818V611.333H319.989V618.057H320.168C320.509 617.597 320.893 617.222 321.319 616.932C321.745 616.643 322.214 616.429 322.726 616.293C323.255 616.14 323.826 616.063 324.44 616.063C325.292 616.063 326.034 616.208 326.665 616.498C327.313 616.787 327.816 617.256 328.174 617.904C328.549 618.551 328.737 619.429 328.737 620.537V629.818H326.486V620.844C326.486 620.281 326.409 619.821 326.256 619.463C326.119 619.105 325.923 618.824 325.667 618.62C325.429 618.415 325.13 618.27 324.772 618.185C324.431 618.1 324.047 618.057 323.621 618.057C322.99 618.057 322.393 618.211 321.831 618.517C321.268 618.807 320.816 619.242 320.475 619.821C320.151 620.384 319.989 621.083 319.989 621.918V629.818H317.738Z" fill="#2C2925"/>
<path d="M305.802 634.471C305.154 634.471 304.557 634.335 304.011 634.062C303.465 633.806 303.031 633.431 302.707 632.937C302.383 632.443 302.221 631.855 302.221 631.173C302.221 630.423 302.425 629.801 302.835 629.306C303.261 628.812 303.764 628.446 304.344 628.207C303.917 628.003 303.585 627.721 303.346 627.363C303.107 626.988 302.988 626.579 302.988 626.136C302.988 625.54 303.201 625.037 303.627 624.628C304.071 624.219 304.608 623.946 305.239 623.81C304.659 623.435 304.199 622.958 303.858 622.378C303.534 621.781 303.372 621.125 303.372 620.409C303.372 619.557 303.568 618.807 303.96 618.16C304.369 617.512 304.983 617.001 305.802 616.626C306.637 616.251 307.652 616.063 308.845 616.063C309.391 616.063 309.903 616.106 310.38 616.191C310.857 616.259 311.284 616.378 311.659 616.549C312.256 616.276 312.699 615.927 312.989 615.501C313.296 615.075 313.483 614.64 313.552 614.197H315.777C315.777 614.708 315.657 615.194 315.419 615.654C315.197 616.097 314.89 616.472 314.498 616.779C314.106 617.069 313.628 617.265 313.066 617.367C313.492 617.776 313.807 618.236 314.012 618.748C314.234 619.259 314.344 619.813 314.344 620.409C314.344 621.262 314.14 622.02 313.731 622.685C313.338 623.332 312.742 623.844 311.94 624.219C311.139 624.594 310.133 624.781 308.922 624.781H306.825C306.364 624.781 305.989 624.875 305.699 625.062C305.409 625.233 305.264 625.514 305.264 625.906C305.264 626.247 305.409 626.528 305.699 626.75C305.989 626.954 306.364 627.057 306.825 627.057H312.298C313.287 627.057 314.097 627.389 314.728 628.054C315.359 628.701 315.675 629.537 315.675 630.559C315.675 631.292 315.487 631.948 315.112 632.528C314.754 633.124 314.242 633.593 313.577 633.934C312.929 634.292 312.17 634.471 311.301 634.471H305.802ZM306.441 632.758H311.275C311.667 632.758 312.025 632.673 312.349 632.502C312.673 632.349 312.929 632.127 313.117 631.838C313.304 631.548 313.398 631.232 313.398 630.892C313.398 630.312 313.228 629.852 312.887 629.511C312.546 629.17 312.119 629 311.608 629H306.441C305.895 629 305.435 629.187 305.06 629.562C304.685 629.92 304.497 630.363 304.497 630.892C304.497 631.454 304.685 631.906 305.06 632.247C305.435 632.587 305.895 632.758 306.441 632.758ZM308.871 623.094C309.962 623.094 310.772 622.855 311.301 622.378C311.829 621.901 312.094 621.245 312.094 620.409C312.094 619.591 311.829 618.944 311.301 618.466C310.772 617.989 309.962 617.75 308.871 617.75C307.78 617.75 306.961 617.989 306.415 618.466C305.887 618.944 305.623 619.591 305.623 620.409C305.623 620.938 305.742 621.406 305.981 621.816C306.219 622.225 306.577 622.54 307.055 622.762C307.532 622.983 308.138 623.094 308.871 623.094Z" fill="#2C2925"/>
<path d="M297.78 613.839V611.333H300.031V613.839H297.78ZM297.78 629.818V616.37H300.031V629.818H297.78Z" fill="#2C2925"/>
<path d="M289.286 629.818V616.371H291.102L291.307 618.595H291.486C291.622 618.169 291.81 617.768 292.049 617.393C292.287 617.001 292.611 616.686 293.02 616.447C293.43 616.192 293.933 616.064 294.53 616.064C294.785 616.064 295.016 616.089 295.22 616.14C295.442 616.175 295.604 616.217 295.706 616.268V618.339H294.862C294.282 618.339 293.779 618.441 293.353 618.646C292.944 618.833 292.603 619.106 292.33 619.464C292.057 619.822 291.852 620.248 291.716 620.742C291.597 621.237 291.537 621.765 291.537 622.327V629.818H289.286Z" fill="#2C2925"/>
<path d="M273.388 629.818L269.321 616.37H271.649L273.695 623.759C273.797 624.116 273.891 624.508 273.976 624.935C274.079 625.344 274.173 625.727 274.258 626.085C274.36 626.426 274.428 626.69 274.462 626.878H274.616C274.684 626.554 274.761 626.187 274.846 625.778C274.948 625.369 275.034 624.977 275.102 624.602C275.187 624.227 275.255 623.938 275.306 623.733L277.148 616.37H279.578L281.445 623.733C281.513 624.023 281.59 624.364 281.675 624.756C281.761 625.131 281.846 625.506 281.931 625.881C282.033 626.256 282.102 626.588 282.136 626.878H282.289C282.357 626.605 282.434 626.29 282.519 625.932C282.605 625.557 282.698 625.182 282.801 624.807C282.903 624.415 282.997 624.074 283.082 623.784L285.103 616.37H287.251L283.21 629.818H280.908L279.169 622.864C279.1 622.54 279.015 622.165 278.913 621.739C278.811 621.296 278.708 620.853 278.606 620.409C278.521 619.949 278.444 619.549 278.376 619.208H278.222C278.188 619.463 278.129 619.787 278.043 620.179C277.975 620.571 277.89 621.006 277.787 621.483C277.685 621.943 277.566 622.404 277.429 622.864L275.69 629.818H273.388Z" fill="#2C2925"/>
<path d="M259.066 634.471C258.657 634.471 258.298 634.437 257.992 634.369C257.702 634.317 257.506 634.283 257.403 634.266V632.63H258.529C258.938 632.63 259.339 632.545 259.731 632.374C260.123 632.204 260.49 631.914 260.831 631.505C261.172 631.096 261.462 630.534 261.7 629.818L256.482 616.37H258.836L261.521 623.298C261.641 623.622 261.777 624.023 261.93 624.5C262.101 624.96 262.263 625.437 262.416 625.932C262.587 626.426 262.723 626.861 262.826 627.236H262.979C263.047 626.963 263.133 626.656 263.235 626.315C263.337 625.974 263.44 625.625 263.542 625.267C263.661 624.892 263.772 624.543 263.874 624.219C263.994 623.878 264.088 623.58 264.156 623.324L266.432 616.37H268.709L264.156 629.434C263.9 630.167 263.619 630.84 263.312 631.454C263.005 632.085 262.664 632.622 262.289 633.065C261.913 633.508 261.462 633.849 260.933 634.087C260.404 634.343 259.782 634.471 259.066 634.471Z" fill="#2C2925"/>
<path d="M247.353 630.125C246.858 630.125 246.364 630.066 245.869 629.946C245.375 629.827 244.914 629.631 244.488 629.358C244.062 629.086 243.721 628.711 243.465 628.233C243.209 627.739 243.081 627.125 243.081 626.393C243.081 625.472 243.303 624.714 243.746 624.117C244.189 623.521 244.803 623.06 245.588 622.737C246.389 622.396 247.335 622.166 248.427 622.046C249.518 621.91 250.703 621.842 251.982 621.842V620.308C251.982 619.813 251.897 619.387 251.726 619.029C251.556 618.671 251.249 618.399 250.806 618.211C250.379 618.007 249.765 617.904 248.964 617.904C248.197 617.904 247.583 618.007 247.122 618.211C246.679 618.399 246.364 618.646 246.176 618.953C246.005 619.26 245.92 619.6 245.92 619.975V620.359H243.746C243.729 620.274 243.72 620.188 243.72 620.103C243.72 620.018 243.72 619.916 243.72 619.796C243.72 618.978 243.942 618.297 244.386 617.751C244.846 617.189 245.485 616.771 246.304 616.498C247.122 616.209 248.06 616.064 249.117 616.064C250.243 616.064 251.181 616.226 251.931 616.549C252.698 616.873 253.269 617.334 253.645 617.93C254.037 618.527 254.233 619.242 254.233 620.078V627.364C254.233 627.688 254.31 627.918 254.463 628.054C254.617 628.174 254.804 628.233 255.026 628.233H256.023V629.716C255.785 629.818 255.52 629.904 255.23 629.972C254.941 630.057 254.608 630.1 254.233 630.1C253.79 630.1 253.423 630.006 253.133 629.818C252.843 629.648 252.622 629.409 252.468 629.103C252.315 628.779 252.212 628.421 252.161 628.029H251.982C251.675 628.455 251.283 628.83 250.806 629.154C250.345 629.46 249.825 629.699 249.245 629.87C248.666 630.04 248.035 630.125 247.353 630.125ZM247.915 628.233C248.461 628.233 248.972 628.148 249.45 627.978C249.944 627.807 250.379 627.569 250.754 627.262C251.129 626.938 251.428 626.554 251.65 626.111C251.871 625.668 251.982 625.182 251.982 624.654V623.529C250.601 623.529 249.424 623.606 248.452 623.759C247.48 623.913 246.73 624.185 246.202 624.577C245.69 624.969 245.434 625.523 245.434 626.239C245.434 626.699 245.536 627.074 245.741 627.364C245.946 627.654 246.236 627.875 246.611 628.029C246.986 628.165 247.421 628.233 247.915 628.233Z" fill="#2C2925"/>
<path d="M238.231 629.818V611.333H240.482V629.818H238.231Z" fill="#2C2925"/>
<path d="M221.656 629.818V612.28H230.327C231.538 612.28 232.544 612.51 233.345 612.97C234.147 613.413 234.743 614.035 235.136 614.836C235.545 615.637 235.75 616.566 235.75 617.623C235.75 618.697 235.528 619.651 235.085 620.487C234.641 621.305 234.01 621.944 233.192 622.404C232.39 622.864 231.427 623.094 230.301 623.094H224.086V629.818H221.656ZM224.086 620.998H230.148C231.103 620.998 231.862 620.7 232.424 620.103C233.004 619.507 233.294 618.688 233.294 617.649C233.294 616.95 233.175 616.362 232.936 615.885C232.697 615.407 232.348 615.041 231.887 614.785C231.427 614.513 230.847 614.376 230.148 614.376H224.086V620.998Z" fill="#2C2925"/>
<path d="M201.464 629.818V616.371H203.28L203.484 618.39H203.664C204.022 617.845 204.422 617.402 204.866 617.061C205.326 616.72 205.829 616.473 206.375 616.319C206.937 616.149 207.534 616.064 208.165 616.064C209.018 616.064 209.76 616.209 210.39 616.498C211.038 616.788 211.541 617.257 211.9 617.904C212.275 618.552 212.462 619.43 212.462 620.538V629.818H210.211V620.845C210.211 620.282 210.135 619.822 209.981 619.464C209.845 619.106 209.649 618.825 209.393 618.62C209.154 618.416 208.856 618.271 208.498 618.186C208.157 618.101 207.773 618.058 207.347 618.058C206.716 618.058 206.119 618.211 205.556 618.518C204.994 618.825 204.542 619.268 204.201 619.848C203.877 620.427 203.715 621.117 203.715 621.918V629.818H201.464Z" fill="#2C2925"/>
<path d="M190.901 630.125C190.407 630.125 189.912 630.066 189.418 629.946C188.923 629.827 188.463 629.631 188.037 629.358C187.61 629.086 187.269 628.711 187.014 628.233C186.758 627.739 186.63 627.125 186.63 626.393C186.63 625.472 186.852 624.714 187.295 624.117C187.738 623.521 188.352 623.06 189.137 622.737C189.938 622.396 190.884 622.166 191.976 622.046C193.067 621.91 194.252 621.842 195.531 621.842V620.308C195.531 619.813 195.446 619.387 195.275 619.029C195.105 618.671 194.798 618.399 194.354 618.211C193.928 618.007 193.314 617.904 192.513 617.904C191.745 617.904 191.132 618.007 190.671 618.211C190.228 618.399 189.912 618.646 189.725 618.953C189.554 619.26 189.469 619.6 189.469 619.975V620.359H187.295C187.278 620.274 187.269 620.188 187.269 620.103C187.269 620.018 187.269 619.916 187.269 619.796C187.269 618.978 187.491 618.297 187.934 617.751C188.395 617.189 189.034 616.771 189.853 616.498C190.671 616.209 191.609 616.064 192.666 616.064C193.792 616.064 194.729 616.226 195.48 616.549C196.247 616.873 196.818 617.334 197.193 617.93C197.586 618.527 197.782 619.242 197.782 620.078V627.364C197.782 627.688 197.858 627.918 198.012 628.054C198.165 628.174 198.353 628.233 198.575 628.233H199.572V629.716C199.333 629.818 199.069 629.904 198.779 629.972C198.489 630.057 198.157 630.1 197.782 630.1C197.338 630.1 196.972 630.006 196.682 629.818C196.392 629.648 196.17 629.409 196.017 629.103C195.863 628.779 195.761 628.421 195.71 628.029H195.531C195.224 628.455 194.832 628.83 194.354 629.154C193.894 629.46 193.374 629.699 192.794 629.87C192.214 630.04 191.583 630.125 190.901 630.125ZM191.464 628.233C192.01 628.233 192.521 628.148 192.999 627.978C193.493 627.807 193.928 627.569 194.303 627.262C194.678 626.938 194.977 626.554 195.198 626.111C195.42 625.668 195.531 625.182 195.531 624.654V623.529C194.15 623.529 192.973 623.606 192.001 623.759C191.029 623.913 190.279 624.185 189.75 624.577C189.239 624.969 188.983 625.523 188.983 626.239C188.983 626.699 189.085 627.074 189.29 627.364C189.495 627.654 189.784 627.875 190.16 628.029C190.535 628.165 190.97 628.233 191.464 628.233Z" fill="#2C2925"/>
<path d="M181.781 613.839V611.333H184.032V613.839H181.781ZM181.781 629.818V616.37H184.032V629.818H181.781Z" fill="#2C2925"/>
<path d="M173.45 630.124C172.529 630.124 171.719 630.03 171.02 629.843C170.321 629.655 169.741 629.383 169.281 629.025C168.82 628.667 168.471 628.241 168.232 627.746C167.993 627.252 167.874 626.69 167.874 626.059C167.874 625.974 167.874 625.897 167.874 625.829C167.874 625.744 167.883 625.676 167.9 625.624H170.125C170.108 625.693 170.099 625.752 170.099 625.803C170.099 625.854 170.099 625.906 170.099 625.957C170.116 626.553 170.27 627.022 170.56 627.363C170.867 627.704 171.284 627.942 171.813 628.079C172.342 628.215 172.93 628.283 173.578 628.283C174.141 628.283 174.661 628.215 175.138 628.079C175.616 627.925 175.991 627.704 176.263 627.414C176.553 627.107 176.698 626.724 176.698 626.264C176.698 625.701 176.511 625.275 176.136 624.985C175.778 624.678 175.3 624.44 174.703 624.269C174.106 624.099 173.484 623.92 172.836 623.732C172.29 623.579 171.745 623.409 171.199 623.221C170.653 623.034 170.159 622.804 169.716 622.531C169.289 622.258 168.94 621.909 168.667 621.483C168.411 621.039 168.283 620.486 168.283 619.821C168.283 619.224 168.403 618.696 168.641 618.236C168.897 617.776 169.255 617.383 169.716 617.06C170.176 616.736 170.73 616.497 171.378 616.344C172.043 616.173 172.776 616.088 173.578 616.088C174.43 616.088 175.172 616.182 175.803 616.369C176.451 616.557 176.988 616.821 177.414 617.162C177.841 617.503 178.156 617.895 178.361 618.338C178.565 618.764 178.668 619.224 178.668 619.719C178.668 619.821 178.668 619.923 178.668 620.025C178.668 620.111 178.659 620.179 178.642 620.23H176.443V619.949C176.443 619.608 176.349 619.284 176.161 618.977C175.991 618.653 175.684 618.398 175.24 618.21C174.814 618.006 174.217 617.903 173.45 617.903C172.955 617.903 172.529 617.946 172.171 618.031C171.813 618.099 171.515 618.219 171.276 618.389C171.037 618.543 170.858 618.73 170.739 618.952C170.619 619.156 170.56 619.395 170.56 619.667C170.56 620.111 170.705 620.451 170.994 620.69C171.284 620.929 171.668 621.125 172.145 621.278C172.64 621.431 173.169 621.602 173.731 621.789C174.328 621.96 174.933 622.139 175.547 622.326C176.178 622.497 176.749 622.718 177.261 622.991C177.79 623.264 178.207 623.639 178.514 624.116C178.838 624.576 179 625.19 179 625.957C179 626.673 178.864 627.295 178.591 627.823C178.318 628.351 177.926 628.786 177.414 629.127C176.92 629.468 176.332 629.715 175.65 629.868C174.985 630.039 174.251 630.124 173.45 630.124Z" fill="#2C2925"/>
<path d="M149.723 629.818L156.654 612.28H159.851L166.808 629.818H164.174L162.46 625.472H153.917L152.229 629.818H149.723ZM154.71 623.401H161.642L159.519 617.904C159.468 617.751 159.391 617.538 159.289 617.265C159.186 616.993 159.076 616.694 158.956 616.37C158.837 616.03 158.717 615.689 158.598 615.348C158.479 614.99 158.368 614.666 158.266 614.376H158.112C157.993 614.717 157.856 615.109 157.703 615.552C157.549 615.995 157.396 616.43 157.242 616.856C157.089 617.265 156.961 617.615 156.859 617.904L154.71 623.401Z" fill="#2C2925"/>
<path d="M131.551 629.818V611.333H133.802V618.057H133.981C134.322 617.597 134.705 617.222 135.132 616.932C135.558 616.643 136.027 616.429 136.538 616.293C137.067 616.14 137.638 616.063 138.252 616.063C139.105 616.063 139.846 616.208 140.477 616.498C141.125 616.787 141.628 617.256 141.986 617.904C142.362 618.551 142.549 619.429 142.549 620.537V629.818H140.298V620.844C140.298 620.281 140.222 619.821 140.068 619.463C139.932 619.105 139.736 618.824 139.48 618.62C139.241 618.415 138.943 618.27 138.585 618.185C138.244 618.1 137.86 618.057 137.434 618.057C136.803 618.057 136.206 618.211 135.643 618.517C135.08 618.807 134.629 619.242 134.288 619.821C133.964 620.384 133.802 621.083 133.802 621.918V629.818H131.551Z" fill="#2C2925"/>
<path d="M127.103 630.125C126.404 630.125 125.858 629.997 125.466 629.741C125.074 629.468 124.793 629.119 124.622 628.693C124.452 628.25 124.366 627.781 124.366 627.287V618.262H122.627V616.37H124.417L124.827 612.612H126.617V616.37H129.149V618.262H126.617V626.954C126.617 627.38 126.694 627.704 126.847 627.926C127.001 628.13 127.291 628.233 127.717 628.233H129.149V629.715C128.979 629.801 128.774 629.869 128.535 629.92C128.297 629.971 128.049 630.014 127.794 630.048C127.555 630.099 127.325 630.125 127.103 630.125Z" fill="#2C2925"/>
<path d="M113.763 630.125C112.467 630.125 111.427 629.792 110.642 629.127C109.858 628.463 109.466 627.304 109.466 625.65V616.37H111.717V625.344C111.717 625.906 111.785 626.366 111.921 626.724C112.058 627.082 112.254 627.363 112.51 627.568C112.765 627.772 113.064 627.917 113.405 628.003C113.763 628.088 114.147 628.13 114.556 628.13C115.204 628.13 115.801 627.977 116.346 627.67C116.892 627.363 117.335 626.92 117.676 626.341C118.034 625.744 118.213 625.054 118.213 624.27V616.37H120.464V629.818H118.648L118.444 627.798H118.265C117.906 628.343 117.497 628.787 117.037 629.127C116.593 629.468 116.09 629.716 115.528 629.869C114.982 630.039 114.394 630.125 113.763 630.125Z" fill="#2C2925"/>
<path d="M100.532 630.125C99.1682 630.125 98.0172 629.878 97.0794 629.384C96.1586 628.872 95.4509 628.097 94.9564 627.057C94.479 626.018 94.2402 624.697 94.2402 623.094C94.2402 621.475 94.479 620.154 94.9564 619.132C95.4509 618.092 96.1586 617.325 97.0794 616.831C98.0172 616.319 99.1682 616.064 100.532 616.064C101.896 616.064 103.039 616.319 103.96 616.831C104.898 617.325 105.605 618.092 106.083 619.132C106.56 620.154 106.799 621.475 106.799 623.094C106.799 624.697 106.56 626.018 106.083 627.057C105.605 628.097 104.898 628.872 103.96 629.384C103.039 629.878 101.896 630.125 100.532 630.125ZM100.532 628.233C101.402 628.233 102.127 628.063 102.706 627.722C103.286 627.381 103.721 626.853 104.011 626.137C104.318 625.404 104.471 624.484 104.471 623.376V622.813C104.471 621.688 104.318 620.768 104.011 620.052C103.721 619.336 103.286 618.808 102.706 618.467C102.127 618.126 101.402 617.956 100.532 617.956C99.6627 617.956 98.9295 618.126 98.3327 618.467C97.7529 618.808 97.3181 619.336 97.0282 620.052C96.7383 620.768 96.5934 621.688 96.5934 622.813V623.376C96.5934 624.484 96.7383 625.404 97.0282 626.137C97.3181 626.853 97.7529 627.381 98.3327 627.722C98.9295 628.063 99.6627 628.233 100.532 628.233Z" fill="#2C2925"/>
<path d="M84.6765 630.125C83.7216 630.125 82.8008 630.031 81.9142 629.843C81.0445 629.656 80.2687 629.358 79.5866 628.948C78.9045 628.522 78.3589 627.977 77.9496 627.312C77.5574 626.647 77.3613 625.829 77.3613 624.858C77.3613 624.773 77.3613 624.687 77.3613 624.602C77.3784 624.517 77.3869 624.432 77.3869 624.347H79.8424C79.8424 624.398 79.8338 624.483 79.8168 624.602C79.8168 624.704 79.8168 624.798 79.8168 624.883C79.8168 625.565 80.0214 626.145 80.4306 626.622C80.8399 627.099 81.4026 627.457 82.1188 627.696C82.852 627.917 83.679 628.028 84.5998 628.028C85.009 628.028 85.4353 628.003 85.8787 627.951C86.3391 627.9 86.7739 627.815 87.1831 627.696C87.6094 627.559 87.9846 627.389 88.3086 627.184C88.6496 626.963 88.9139 626.699 89.1015 626.392C89.3061 626.068 89.4084 625.676 89.4084 625.216C89.4084 624.636 89.2379 624.159 88.8968 623.784C88.5729 623.392 88.138 623.077 87.5924 622.838C87.0467 622.582 86.4243 622.361 85.7252 622.173C85.0431 621.969 84.3355 621.773 83.6023 621.585C82.8691 621.398 82.1529 621.185 81.4538 620.946C80.7717 620.691 80.1578 620.384 79.6122 620.026C79.0665 619.651 78.6232 619.191 78.2821 618.645C77.9581 618.1 77.7961 617.435 77.7961 616.651C77.7961 615.918 77.9411 615.262 78.231 614.682C78.5379 614.103 78.9813 613.617 79.561 613.225C80.1578 612.816 80.891 612.509 81.7607 612.305C82.6303 612.083 83.6279 611.972 84.7533 611.972C85.6741 611.972 86.5267 612.075 87.311 612.279C88.1125 612.467 88.8116 612.765 89.4084 613.174C90.0223 613.566 90.4997 614.069 90.8407 614.682C91.1818 615.296 91.3523 616.037 91.3523 616.907V617.214H88.948V616.83C88.948 616.251 88.769 615.756 88.4109 615.347C88.0528 614.938 87.5583 614.623 86.9274 614.401C86.3135 614.18 85.6144 614.069 84.83 614.069C83.8069 614.069 82.9543 614.171 82.2722 614.376C81.5902 614.563 81.0786 614.844 80.7376 615.219C80.4136 615.577 80.2516 615.986 80.2516 616.447C80.2516 616.975 80.4136 617.418 80.7376 617.776C81.0786 618.134 81.522 618.432 82.0676 618.671C82.6133 618.892 83.2357 619.097 83.9348 619.284C84.6339 619.472 85.3416 619.668 86.0577 619.872C86.791 620.06 87.4986 620.281 88.1807 620.537C88.8798 620.776 89.5022 621.083 90.0478 621.458C90.6105 621.815 91.0539 622.276 91.3779 622.838C91.7019 623.384 91.8638 624.057 91.8638 624.858C91.8638 626.102 91.5569 627.116 90.9431 627.9C90.3292 628.667 89.4851 629.23 88.4109 629.588C87.3366 629.946 86.0918 630.125 84.6765 630.125Z" fill="#2C2925"/>
<path d="M58.0391 629.818V611.333H60.2899V618.057H60.4689C60.81 617.597 61.1936 617.222 61.6199 616.932C62.0462 616.643 62.5152 616.429 63.0267 616.293C63.5553 616.14 64.1265 616.063 64.7404 616.063C65.593 616.063 66.3348 616.208 66.9657 616.498C67.6136 616.787 68.1167 617.256 68.4747 617.904C68.8499 618.551 69.0375 619.429 69.0375 620.537V629.818H66.7866V620.844C66.7866 620.281 66.7099 619.821 66.5564 619.463C66.42 619.105 66.2239 618.824 65.9681 618.62C65.7294 618.415 65.431 618.27 65.0729 618.185C64.7319 618.1 64.3482 618.057 63.9219 618.057C63.291 618.057 62.6942 618.211 62.1315 618.517C61.5688 618.807 61.1169 619.242 60.7759 619.821C60.4519 620.384 60.2899 621.083 60.2899 621.918V629.818H58.0391Z" fill="#2C2925"/>
<path d="M49.7068 630.124C48.786 630.124 47.976 630.03 47.2769 629.843C46.5778 629.655 45.998 629.383 45.5376 629.025C45.0772 628.667 44.7277 628.241 44.489 627.746C44.2502 627.252 44.1309 626.69 44.1309 626.059C44.1309 625.974 44.1309 625.897 44.1309 625.829C44.1309 625.744 44.1394 625.676 44.1564 625.624H46.3817C46.3646 625.693 46.3561 625.752 46.3561 625.803C46.3561 625.854 46.3561 625.906 46.3561 625.957C46.3732 626.553 46.5266 627.022 46.8165 627.363C47.1234 627.704 47.5412 627.942 48.0698 628.079C48.5984 628.215 49.1867 628.283 49.8347 628.283C50.3974 628.283 50.9175 628.215 51.3949 628.079C51.8724 627.925 52.2475 627.704 52.5203 627.414C52.8102 627.107 52.9552 626.724 52.9552 626.264C52.9552 625.701 52.7676 625.275 52.3924 624.985C52.0344 624.678 51.5569 624.44 50.9601 624.269C50.3633 624.099 49.7409 623.92 49.0929 623.732C48.5473 623.579 48.0016 623.409 47.456 623.221C46.9103 623.034 46.4158 622.804 45.9725 622.531C45.5462 622.258 45.1966 621.909 44.9238 621.483C44.668 621.039 44.5401 620.486 44.5401 619.821C44.5401 619.224 44.6595 618.696 44.8982 618.236C45.154 617.776 45.5121 617.383 45.9725 617.06C46.4329 616.736 46.987 616.497 47.635 616.344C48.3 616.173 49.0332 616.088 49.8347 616.088C50.6873 616.088 51.429 616.182 52.0599 616.369C52.7079 616.557 53.245 616.821 53.6713 617.162C54.0976 617.503 54.4131 617.895 54.6177 618.338C54.8223 618.764 54.9246 619.224 54.9246 619.719C54.9246 619.821 54.9246 619.923 54.9246 620.025C54.9246 620.111 54.9161 620.179 54.899 620.23H52.6994V619.949C52.6994 619.608 52.6056 619.284 52.418 618.977C52.2475 618.653 51.9406 618.398 51.4972 618.21C51.0709 618.006 50.4741 617.903 49.7068 617.903C49.2123 617.903 48.786 617.946 48.4279 618.031C48.0698 618.099 47.7714 618.219 47.5327 618.389C47.294 618.543 47.1149 618.73 46.9956 618.952C46.8762 619.156 46.8165 619.395 46.8165 619.667C46.8165 620.111 46.9615 620.451 47.2513 620.69C47.5412 620.929 47.9249 621.125 48.4023 621.278C48.8968 621.431 49.4254 621.602 49.9881 621.789C50.585 621.96 51.1903 622.139 51.8042 622.326C52.4351 622.497 53.0063 622.718 53.5179 622.991C54.0465 623.264 54.4642 623.639 54.7712 624.116C55.0952 624.576 55.2571 625.19 55.2571 625.957C55.2571 626.673 55.1207 627.295 54.8479 627.823C54.5751 628.351 54.1829 628.786 53.6713 629.127C53.1768 629.468 52.5885 629.715 51.9065 629.868C51.2414 630.039 50.5082 630.124 49.7068 630.124Z" fill="#2C2925"/>
<path d="M39.2559 613.839V611.333H41.5067V613.839H39.2559ZM39.2559 629.818V616.37H41.5067V629.818H39.2559Z" fill="#2C2925"/>
<path d="M34.8081 630.125C34.109 630.125 33.5633 629.997 33.1712 629.741C32.779 629.468 32.4976 629.119 32.3271 628.693C32.1566 628.25 32.0713 627.781 32.0713 627.287V618.262H30.332V616.37H32.1225L32.5317 612.612H34.3221V616.37H36.8543V618.262H34.3221V626.954C34.3221 627.38 34.3989 627.704 34.5523 627.926C34.7058 628.13 34.9957 628.233 35.422 628.233H36.8543V629.715C36.6838 629.801 36.4792 629.869 36.2405 629.92C36.0017 629.971 35.7545 630.014 35.4987 630.048C35.26 630.099 35.0298 630.125 34.8081 630.125Z" fill="#2C2925"/>
<path d="M25.917 613.839V611.333H28.1678V613.839H25.917ZM25.917 629.818V616.37H28.1678V629.818H25.917Z" fill="#2C2925"/>
<path d="M17.4238 629.818V616.371H19.2398L19.4445 618.595H19.6235C19.7599 618.169 19.9475 617.768 20.1862 617.393C20.4249 617.001 20.7489 616.686 21.1582 616.447C21.5674 616.192 22.0704 616.064 22.6672 616.064C22.923 616.064 23.1532 616.089 23.3578 616.14C23.5795 616.175 23.7415 616.217 23.8438 616.268V618.339H22.9998C22.42 618.339 21.917 618.441 21.4907 618.646C21.0814 618.833 20.7404 619.106 20.4676 619.464C20.1947 619.822 19.9901 620.248 19.8537 620.742C19.7344 621.237 19.6747 621.765 19.6747 622.327V629.818H17.4238Z" fill="#2C2925"/>
<path d="M0 629.818V612.28H9.05449C10.0605 612.28 10.9302 612.459 11.6634 612.817C12.3966 613.158 12.9593 613.643 13.3515 614.274C13.7608 614.905 13.9654 615.655 13.9654 616.524C13.9654 617.189 13.846 617.802 13.6073 618.365C13.3686 618.927 13.0361 619.396 12.6098 619.771C12.1835 620.146 11.6975 620.427 11.1519 620.614V620.717C11.7657 620.853 12.3199 621.1 12.8144 621.458C13.3089 621.816 13.7011 622.293 13.991 622.89C14.2979 623.469 14.4514 624.185 14.4514 625.037C14.4514 626.179 14.2126 627.1 13.7352 627.799C13.2577 628.497 12.6183 629.009 11.8169 629.333C11.0154 629.656 10.0946 629.818 9.05449 629.818H0ZM2.42989 627.722H9.02891C9.89855 627.722 10.6062 627.5 11.1519 627.057C11.6975 626.597 11.9703 625.838 11.9703 624.782C11.9703 624.134 11.851 623.597 11.6123 623.171C11.3735 622.728 11.024 622.404 10.5636 622.2C10.1032 621.978 9.52342 621.867 8.82429 621.867H2.42989V627.722ZM2.42989 619.796H8.59409C9.17385 619.796 9.67687 619.686 10.1032 619.464C10.5295 619.225 10.862 618.901 11.1007 618.492C11.3565 618.066 11.4844 617.589 11.4844 617.061C11.4844 616.14 11.2371 615.467 10.7426 615.041C10.2481 614.598 9.59162 614.376 8.77313 614.376H2.42989V619.796Z" fill="#2C2925"/>
</svg>
