<svg width="44" height="44" viewBox="0 0 44 44" fill="none" xmlns="http://www.w3.org/2000/svg">
<rect width="44" height="44" rx="22" fill="#1ED760"/>
<path d="M32.0884 31.7304C31.6944 32.3767 30.8486 32.5817 30.2023 32.185C25.0369 29.0296 18.5345 28.3152 10.8766 30.0649C10.1385 30.2329 9.403 29.7706 9.23476 29.0323C9.06599 28.2941 9.5264 27.5585 10.2663 27.3904C18.6466 25.4749 25.8351 26.3001 31.634 29.8442C32.2803 30.2409 32.4851 31.0841 32.0884 31.7304ZM34.7812 25.7392C34.2847 26.5471 33.2287 26.8018 32.4221 26.3054C26.5086 22.6697 17.4943 21.6169 10.4998 23.7402C9.5926 24.0142 8.63453 23.5029 8.3593 22.5975C8.08602 21.6904 8.59745 20.734 9.5031 20.4581C17.4927 18.0338 27.4255 19.2082 34.2164 23.3813C35.0228 23.8779 35.2778 24.9337 34.7812 25.7392ZM35.0124 19.5014C27.9219 15.2898 16.2236 14.9027 9.45402 16.9573C8.3669 17.287 7.21727 16.6732 6.88785 15.5862C6.55843 14.4985 7.17155 13.3498 8.25938 13.0193C16.0304 10.66 28.9492 11.1158 37.1125 15.9621C38.0923 16.5424 38.4129 17.8054 37.8323 18.7818C37.2543 19.7597 35.9871 20.0819 35.0124 19.5014Z" fill="#2C2925"/>
</svg>
