<svg width="386" height="386" viewBox="0 0 386 386" fill="none" xmlns="http://www.w3.org/2000/svg">
<path d="M240.826 26.0522L244.937 32.4244C250.276 40.7005 260.192 44.8036 269.82 42.7287L277.234 41.1279C317.65 32.4166 353.576 68.3496 344.872 108.766L343.271 116.18C341.196 125.808 345.3 135.716 353.576 141.063L359.948 145.174C394.684 167.593 394.684 218.399 359.948 240.826L353.576 244.937C345.3 250.276 341.196 260.192 343.271 269.82L344.872 277.234C353.583 317.65 317.65 353.576 277.234 344.872L269.82 343.271C260.192 341.196 250.284 345.3 244.937 353.576L240.826 359.948C218.407 394.684 167.601 394.684 145.174 359.948L141.063 353.576C135.724 345.3 125.808 341.196 116.18 343.271L108.766 344.872C68.3496 353.583 32.4244 317.65 41.1279 277.234L42.7287 269.82C44.8036 260.192 40.7005 250.284 32.4244 244.937L26.0522 240.826C-8.68407 218.407 -8.68407 167.601 26.0522 145.174L32.4244 141.063C40.7005 135.724 44.8036 125.808 42.7287 116.18L41.1279 108.766C32.4166 68.3496 68.3496 32.4244 108.766 41.1279L116.18 42.7287C125.808 44.8036 135.716 40.7005 141.063 32.4244L145.174 26.0522C167.593 -8.68407 218.399 -8.68407 240.826 26.0522Z" fill="#FFB210"/>
</svg>
