<svg width="248" height="180" viewBox="0 0 248 180" fill="none" xmlns="http://www.w3.org/2000/svg">
<path d="M222.741 50.4682C236.677 50.4682 247.975 39.1705 247.975 25.2341C247.975 11.2977 236.677 0 222.741 0C208.805 0 197.507 11.2977 197.507 25.2341C197.507 39.1705 208.805 50.4682 222.741 50.4682Z" fill="#FFB210"/>
<path d="M25.2595 178.471C39.1959 178.471 50.4936 167.173 50.4936 153.237C50.4936 139.3 39.1959 128.002 25.2595 128.002C11.3231 128.002 0.0253906 139.3 0.0253906 153.237C0.0253906 167.173 11.3231 178.471 25.2595 178.471Z" fill="#FFB210"/>
<path d="M20.6984 49.6179V14.2462H0V0.850586H58.905V14.2462H38.2066V49.6179H20.6984Z" fill="#FFFBED"/>
<path d="M64.3633 49.6179V0.850586H81.8715V18.1472H107.888V0.850586H125.396V49.6179H107.888V31.5428H81.8715V49.6179H64.3633Z" fill="#FFFBED"/>
<path d="M131.633 49.6179V0.850586H183.734V12.9726H149.213V19.2811H178.983V30.7643H149.213V37.5001H184.301V49.6221H131.633V49.6179Z" fill="#FFFBED"/>
<path d="M0.046875 113.621V64.854H15.2872L39.3874 85.197C39.6709 85.4339 40.0728 85.7893 40.5932 86.259C41.1137 86.7329 41.6552 87.2279 42.2222 87.7483C42.7892 88.2688 43.3096 88.7426 43.7835 89.1657H44.4943V64.854H60.9405V113.621H45.844L22.9497 94.4123C21.9554 93.6084 20.9061 92.7114 19.7933 91.7171C18.6805 90.7228 17.7962 89.9231 17.1362 89.3054H16.4973V113.617H0.046875V113.621Z" fill="#FFFBED"/>
<path d="M67.8838 113.621V64.854H119.985V76.976H85.4639V83.2845H115.234V94.7677H85.4639V101.504H120.552V113.626H67.8838V113.621Z" fill="#FFFBED"/>
<path d="M122.325 113.621L145.575 88.4592L124.449 64.854H147.06L156.631 76.4091H157.198L167.403 64.854H188.101L166.836 87.7483L190.014 113.621H167.471L155.844 99.8703H155.205L143.155 113.621H122.312H122.325Z" fill="#FFFBED"/>
<path d="M209.794 113.621V78.2496H189.096V64.854H248.001V78.2496H227.302V113.621H209.794Z" fill="#FFFBED"/>
<path d="M64.0078 177.62L87.613 128.853H106.894L130.499 177.62H111.713L108.806 171.167H84.9178L82.0829 177.62H64.0078ZM90.2362 159.05H103.492L100.09 150.829C99.9465 150.452 99.7604 149.94 99.5234 149.306C99.2865 148.667 99.0284 147.947 98.7449 147.143C98.4614 146.34 98.1906 145.536 97.9283 144.732C97.6702 143.928 97.4206 143.196 97.1836 142.536H96.6886C96.4051 143.34 96.0751 144.262 95.6943 145.299C95.3177 146.34 94.9496 147.355 94.5942 148.345C94.2388 149.339 93.9215 150.164 93.638 150.824L90.2362 159.045V159.05Z" fill="#FFFBED"/>
<path d="M158.213 178.47C151.172 178.47 145.333 177.514 140.704 175.602C136.071 173.689 132.61 170.863 130.321 167.131C128.028 163.399 126.886 158.766 126.886 153.236C126.886 145.155 129.556 138.931 134.895 134.556C140.235 130.186 148.054 127.998 158.356 127.998C164.026 127.998 169.015 128.882 173.313 130.655C177.612 132.428 180.98 134.886 183.413 138.026C185.846 141.169 187.064 144.795 187.064 148.908H170.051C170.051 147.207 169.556 145.697 168.562 144.372C167.567 143.048 166.175 142.011 164.381 141.254C162.583 140.501 160.485 140.12 158.073 140.12C155.048 140.12 152.556 140.666 150.597 141.749C148.633 142.836 147.195 144.3 146.272 146.145C145.35 147.986 144.889 150.042 144.889 152.31V154.083C144.889 156.257 145.35 158.276 146.272 160.141C147.195 162.007 148.6 163.509 150.491 164.643C152.382 165.777 154.79 166.344 157.722 166.344C160.417 166.344 162.719 165.989 164.631 165.282C166.544 164.571 168.008 163.581 169.027 162.304C170.043 161.026 170.55 159.541 170.55 157.84H187.068C187.068 161.809 185.922 165.354 183.629 168.472C181.335 171.591 178.039 174.036 173.741 175.809C169.442 177.582 164.267 178.466 158.217 178.466L158.213 178.47Z" fill="#FFFBED"/>
<path d="M209.747 177.62V142.248H189.049V128.853H247.954V142.248H227.255V177.62H209.747Z" fill="#FFFBED"/>
</svg>
