<svg width="601" height="1088" viewBox="0 0 601 1088" fill="none" xmlns="http://www.w3.org/2000/svg">
<path d="M41.7395 149.808V78.4633H0V51.4446H118.781V78.4633H77.0415V149.808H41.7395Z" fill="#E70526"/>
<path d="M129.791 149.808V51.4443H165.093V86.33H217.551V51.4443H252.853V149.818H217.551V113.359H165.093V149.818H129.791V149.808Z" fill="#E70526"/>
<path d="M265.438 149.808V51.4443H370.5V75.8893H300.885V88.612H360.916V111.775H300.885V125.363H371.646V149.818H265.438V149.808Z" fill="#E70526"/>
<rect width="200" height="200.062" transform="translate(400)" fill="#FFB210"/>
<path d="M500 26.1418C507.459 45.7773 530.618 54.2043 548.953 43.9576C542.046 63.7945 554.369 85.1337 575 89.0724C556.958 99.829 552.681 124.096 565.953 140.373C545.219 137.014 526.34 152.858 526.047 173.858C512.323 157.96 487.68 157.96 473.953 173.858C473.66 152.858 454.781 137.014 434.047 140.373C447.322 124.096 443.042 99.8259 425 89.0724C445.631 85.1367 457.954 63.7945 451.047 43.9576C469.382 54.2043 492.541 45.7742 500 26.1418Z" fill="#F95379"/>
<rect width="200" height="200.062" transform="translate(0 200.062)" fill="#F95379"/>
<path d="M175 269.699C175 245.046 155.016 225.062 130.363 225.062C118.634 225.062 107.966 229.587 100 236.981C92.0344 229.584 81.3656 225.062 69.6375 225.062C44.9844 225.062 25 245.046 25 269.699C25 281.427 29.525 292.096 36.9188 300.062C29.5219 308.027 25 318.696 25 330.424C25 355.077 44.9844 375.062 69.6375 375.062C81.3656 375.062 92.0344 370.537 100 363.143C107.966 370.54 118.634 375.062 130.363 375.062C155.016 375.062 175 355.077 175 330.424C175 318.696 170.475 308.027 163.081 300.062C170.478 292.096 175 281.427 175 269.699Z" fill="#E70526"/>
<rect width="200" height="200.062" transform="translate(200 200.062)" fill="#6E5FC1"/>
<path d="M339.853 305.364C333.588 303.33 327.586 301.713 322.223 300.562C327.586 299.411 333.588 297.794 339.853 295.76C360.54 289.037 376.241 280.289 374.92 276.218C373.598 272.147 355.754 274.298 335.064 281.02C328.799 283.054 322.993 285.275 317.979 287.496C321.641 283.412 325.547 278.577 329.42 273.249C342.207 255.65 349.766 239.344 346.302 236.828C342.838 234.312 329.669 246.541 316.882 264.141C313.012 269.468 309.621 274.679 306.866 279.425C307.43 273.97 307.746 267.759 307.746 261.175C307.746 239.42 304.277 221.788 299.997 221.788C295.718 221.788 292.248 239.423 292.248 261.175C292.248 267.762 292.565 273.97 293.129 279.425C290.377 274.679 286.986 269.471 283.113 264.141C270.326 246.541 257.155 234.315 253.693 236.828C250.232 239.342 257.791 255.65 270.575 273.249C274.446 278.577 278.354 283.414 282.016 287.496C277 285.275 271.195 283.054 264.931 281.02C244.243 274.298 226.4 272.15 225.078 276.218C223.756 280.289 239.455 289.037 260.145 295.76C266.41 297.794 272.412 299.411 277.774 300.562C272.412 301.713 266.41 303.33 260.145 305.364C239.455 312.086 223.754 320.835 225.078 324.906C226.4 328.976 244.243 326.826 264.933 320.103C271.198 318.069 277.005 315.848 282.019 313.627C278.357 317.712 274.451 322.547 270.578 327.874C257.791 345.474 250.232 361.779 253.696 364.295C257.157 366.811 270.329 354.582 283.115 336.983C286.986 331.655 290.377 326.444 293.131 321.699C292.568 327.154 292.251 333.364 292.251 339.949C292.251 361.703 295.721 379.335 300 379.335C304.28 379.335 307.749 361.7 307.749 339.949C307.749 333.361 307.432 327.154 306.869 321.699C309.621 326.444 313.012 331.652 316.885 336.983C329.672 354.582 342.843 366.809 346.304 364.295C349.766 361.779 342.207 345.474 329.422 327.874C325.552 322.547 321.644 317.709 317.982 313.627C322.998 315.848 328.802 318.069 335.067 320.103C355.754 326.826 373.601 328.976 374.922 324.906C376.244 320.835 360.546 312.086 339.856 305.364H339.853Z" fill="#13BF6C"/>
<rect width="200" height="200.062" transform="translate(400 200.062)" fill="#15D0C6"/>
<path d="M501.448 227.049L517.535 254.168L547.301 243.725C548.506 243.302 549.724 244.324 549.516 245.584L544.393 276.691L573.911 287.812C575.107 288.263 575.383 289.828 574.413 290.66L550.481 311.199L565.941 338.679C566.568 339.791 565.771 341.169 564.495 341.184L532.949 341.544L527.117 372.526C526.881 373.781 525.387 374.324 524.397 373.515L500 353.53L475.602 373.515C474.615 374.324 473.121 373.781 472.883 372.526L467.05 341.544L435.504 341.184C434.226 341.169 433.432 339.794 434.058 338.679L449.518 311.199L425.587 290.66C424.617 289.828 424.895 288.263 426.088 287.812L455.606 276.691L450.483 245.584C450.275 244.324 451.493 243.302 452.699 243.725L482.465 254.168L498.553 227.049C499.205 225.952 500.794 225.952 501.446 227.049H501.448Z" fill="#02AA9A"/>
<path d="M49.7248 549.381V451.007H80.4539L129.058 492.04C129.631 492.519 130.443 493.228 131.485 494.187C132.537 495.145 133.631 496.146 134.777 497.188C135.922 498.24 136.964 499.188 137.922 500.043H139.35V450.996H172.506V549.37H142.058L95.8913 510.619C93.8913 509.004 91.7663 507.191 89.5267 505.19C87.2872 503.189 85.4955 501.564 84.1622 500.324H82.8809V549.37H49.7144L49.7248 549.381Z" fill="#E70526"/>
<path d="M186.516 549.381V451.007H291.578V475.462H221.964V488.185H281.995V511.348H221.964V524.936H292.724V549.391H186.516V549.381Z" fill="#E70526"/>
<path d="M296.287 549.381L343.172 498.626L300.579 451.007H346.172L365.464 474.316H366.61L387.193 451.007H428.933L386.047 497.188L432.787 549.381H387.329L363.891 521.643H362.61L338.308 549.381H296.287Z" fill="#E70526"/>
<path d="M472.683 549.381V478.036H430.943V451.017H549.724V478.036H507.985V549.381H472.683Z" fill="#E70526"/>
<rect width="200" height="200.062" transform="translate(0 600.185)" fill="#EF98FC"/>
<path d="M107.321 629.662L111.136 634.35C116.906 641.437 126.1 644.785 135.077 643.063L141.012 641.925C146.888 640.797 152.32 645.353 152.228 651.337L152.137 657.381C151.999 666.519 156.893 674.993 164.877 679.444L170.156 682.386C175.382 685.299 176.614 692.28 172.698 696.807L168.745 701.377C162.766 708.291 161.067 717.926 164.321 726.468L166.473 732.114C168.604 737.705 165.059 743.846 159.151 744.795L153.184 745.756C144.16 747.208 136.664 753.498 133.666 762.131L131.685 767.84C129.722 773.492 123.064 775.917 117.926 772.848L112.738 769.747C104.893 765.059 95.1074 765.059 87.2622 769.747L82.0742 772.848C76.9361 775.917 70.2784 773.495 68.3149 767.84L66.3337 762.131C63.3385 753.498 55.8401 747.208 46.8162 745.756L40.8493 744.795C34.9411 743.846 31.3962 737.705 33.5272 732.114L35.6789 726.468C38.9328 717.929 37.2338 708.291 31.2551 701.377L27.3016 696.807C23.3863 692.28 24.618 685.302 29.8442 682.386L35.1233 679.444C43.1067 674.993 47.9979 666.519 47.8626 657.381L47.7715 651.337C47.6804 645.353 53.1124 640.797 58.9882 641.925L64.9228 643.063C73.8968 644.785 83.0941 641.437 88.8641 634.35L92.6794 629.662C96.4565 625.021 103.543 625.021 107.321 629.662Z" fill="#FB6324"/>
<rect width="200" height="200.062" transform="translate(200 600.185)" fill="#58C7FF"/>
<path d="M304.702 648.187L306.679 670.483C307.214 676.515 311.16 677.953 315.447 673.675L331.291 657.867C352.014 637.188 355.254 639.907 338.49 663.908L325.672 682.256C322.203 687.222 324.302 690.858 330.338 690.337L352.636 688.41C381.804 685.891 382.537 690.057 354.268 697.664L332.654 703.482C326.807 705.057 326.077 709.19 331.035 712.671L349.355 725.531C373.318 742.351 371.201 746.013 344.657 733.671L324.362 724.236C318.869 721.681 315.653 724.382 317.213 730.232L322.98 751.858C330.525 780.144 326.55 781.591 314.149 755.074L304.666 734.8C302.099 729.312 297.901 729.312 295.334 734.8L285.851 755.074C273.45 781.591 269.475 780.144 277.02 751.858L282.787 730.232C284.347 724.382 281.131 721.681 275.638 724.236L255.343 733.671C228.796 746.013 226.682 742.351 250.645 725.531L268.965 712.671C273.923 709.19 273.193 705.057 267.346 703.482L245.732 697.664C217.463 690.054 218.196 685.891 247.364 688.41L269.662 690.337C275.698 690.858 277.797 687.222 274.328 682.256L261.51 663.908C244.746 639.91 247.986 637.191 268.709 657.867L284.553 673.675C288.84 677.953 292.786 676.515 293.321 670.483L295.299 648.187C297.883 619.025 302.111 619.025 304.696 648.187H304.702Z" fill="#1E9BFF"/>
<rect width="200" height="200.062" transform="translate(400 600.185)" fill="#13BF6C"/>
<path d="M572.774 677.494C565.429 672.928 540.962 665.017 524.669 670.311C524.659 670.313 524.649 670.318 524.639 670.321C523.293 653.723 509.339 634.624 503.047 629.32C501.287 627.838 498.718 627.838 496.958 629.32C490.669 634.624 476.712 653.726 475.366 670.321C475.356 670.318 475.346 670.313 475.336 670.311C459.043 665.017 434.579 672.928 427.231 677.494C425.276 678.707 424.481 681.152 425.35 683.285C428.589 691.248 443.57 711.827 459.751 717.273C458.875 718.319 458.007 719.426 457.154 720.602C447.084 734.462 447.048 760.173 449.12 768.572C449.671 770.806 451.751 772.317 454.046 772.149C462.674 771.525 487.114 763.547 497.184 749.686C498.22 748.262 499.155 746.85 500 745.454C500.843 746.85 501.78 748.262 502.816 749.686C512.886 763.547 537.329 771.525 545.954 772.149C548.249 772.314 550.329 770.806 550.88 768.572C552.952 760.175 552.916 734.462 542.846 720.602C541.993 719.426 541.125 718.319 540.249 717.273C556.43 711.827 571.411 691.25 574.65 683.285C575.519 681.152 574.724 678.71 572.769 677.494H572.774Z" fill="#EF98FC"/>
<rect width="200" height="200.062" transform="translate(0 800.247)" fill="#FB6324"/>
<path d="M101.884 832.188C116.308 820.211 138.292 828.212 141.642 846.658C141.894 848.056 143.109 849.071 144.527 849.079C163.275 849.175 174.973 869.436 165.682 885.719C164.977 886.952 165.253 888.512 166.337 889.428C180.637 901.553 176.577 924.592 158.989 931.094C157.658 931.587 156.866 932.958 157.107 934.356C160.268 952.837 142.347 967.873 124.695 961.551C123.358 961.073 121.87 961.615 121.154 962.839C111.698 979.029 88.3014 979.029 78.8449 962.839C78.1287 961.612 76.641 961.073 75.3042 961.551C57.6526 967.873 39.7314 952.837 42.8922 934.356C43.1329 932.958 42.3412 931.587 41.0102 931.094C23.4253 924.592 19.3626 901.553 33.6619 889.428C34.7435 888.509 35.019 886.952 34.3173 885.719C25.026 869.434 36.7242 849.175 55.4719 849.079C56.8899 849.071 58.105 848.056 58.3573 846.658C61.7066 828.212 83.6906 820.208 98.1146 832.188C99.2079 833.095 100.788 833.095 101.882 832.188H101.884Z" fill="#F72605"/>
<path d="M229.715 948.926L277.308 850.552H316.194L363.787 948.926H325.913L320.048 935.912H271.881L266.163 948.926H229.715ZM282.6 911.467H309.329L302.465 894.878C302.183 894.118 301.798 893.086 301.319 891.804C300.84 890.523 300.319 889.064 299.746 887.449C299.173 885.834 298.621 884.208 298.1 882.583C297.579 880.968 297.079 879.488 296.6 878.154H295.6C295.027 879.78 294.361 881.635 293.6 883.729C292.84 885.823 292.1 887.876 291.381 889.877C290.663 891.877 290.027 893.545 289.454 894.878L282.59 911.467H282.6Z" fill="#E70526"/>
<path d="M419.684 950.645C405.486 950.645 393.715 948.718 384.382 944.852C375.038 940.986 368.059 935.297 363.444 927.763C358.819 920.23 356.517 910.894 356.517 899.734C356.517 883.437 361.903 870.871 372.673 862.056C383.444 853.241 399.215 848.833 419.986 848.833C431.423 848.833 441.475 850.625 450.142 854.199C458.809 857.773 465.6 862.733 470.506 869.068C475.413 875.414 477.871 882.718 477.871 891.013H443.569C443.569 887.584 442.569 884.531 440.569 881.864C438.569 879.196 435.756 877.102 432.131 875.57C428.506 874.049 424.267 873.278 419.413 873.278C413.309 873.278 408.288 874.372 404.329 876.571C400.371 878.769 397.465 881.718 395.611 885.438C393.757 889.158 392.819 893.305 392.819 897.879V901.453C392.819 905.84 393.746 909.914 395.611 913.676C397.465 917.448 400.298 920.47 404.111 922.751C407.923 925.044 412.777 926.18 418.694 926.18C424.121 926.18 428.767 925.461 432.631 924.033C436.486 922.606 439.444 920.605 441.496 918.031C443.548 915.458 444.569 912.457 444.569 909.018H477.871C477.871 917.021 475.558 924.179 470.933 930.462C466.308 936.756 459.663 941.684 450.996 945.258C442.319 948.832 431.892 950.625 419.694 950.625L419.684 950.645Z" fill="#E70526"/>
<path d="M523.6 948.926V877.581H481.861V850.562H600.642V877.581H558.902V948.926H523.6Z" fill="#E70526"/>
<path d="M590.485 1080.55C588.906 1080.55 587.518 1080.39 586.319 1080.06C585.121 1079.74 584.127 1079.27 583.338 1078.66C582.549 1078.05 581.949 1077.32 581.54 1076.47C581.131 1075.62 580.926 1074.66 580.926 1073.58C580.926 1073.43 580.926 1073.3 580.926 1073.18C580.926 1073.03 580.941 1072.92 580.97 1072.83H584.785C584.756 1072.95 584.741 1073.05 584.741 1073.14C584.741 1073.22 584.741 1073.31 584.741 1073.4C584.77 1074.42 585.033 1075.23 585.53 1075.81C586.056 1076.4 586.773 1076.8 587.679 1077.04C588.585 1077.27 589.593 1077.39 590.704 1077.39C591.669 1077.39 592.56 1077.27 593.379 1077.04C594.197 1076.78 594.84 1076.4 595.308 1075.9C595.805 1075.37 596.054 1074.72 596.054 1073.93C596.054 1072.96 595.732 1072.23 595.089 1071.73C594.475 1071.21 593.657 1070.8 592.634 1070.51C591.61 1070.21 590.543 1069.91 589.433 1069.59C588.497 1069.32 587.562 1069.03 586.626 1068.71C585.691 1068.39 584.843 1067.99 584.083 1067.53C583.352 1067.06 582.753 1066.46 582.285 1065.73C581.847 1064.97 581.628 1064.02 581.628 1062.88C581.628 1061.85 581.832 1060.95 582.242 1060.16C582.68 1059.37 583.294 1058.7 584.083 1058.14C584.873 1057.59 585.823 1057.18 586.933 1056.92C588.073 1056.62 589.33 1056.48 590.704 1056.48C592.166 1056.48 593.437 1056.64 594.519 1056.96C595.63 1057.28 596.551 1057.73 597.281 1058.32C598.012 1058.9 598.553 1059.58 598.904 1060.34C599.254 1061.07 599.43 1061.85 599.43 1062.7C599.43 1062.88 599.43 1063.05 599.43 1063.23C599.43 1063.37 599.415 1063.49 599.386 1063.58H595.615V1063.1C595.615 1062.51 595.454 1061.96 595.133 1061.43C594.841 1060.88 594.314 1060.44 593.554 1060.12C592.824 1059.77 591.8 1059.59 590.485 1059.59C589.637 1059.59 588.906 1059.66 588.293 1059.81C587.679 1059.93 587.167 1060.13 586.758 1060.42C586.349 1060.69 586.042 1061.01 585.837 1061.39C585.633 1061.74 585.53 1062.15 585.53 1062.61C585.53 1063.37 585.779 1063.96 586.276 1064.37C586.773 1064.78 587.43 1065.11 588.249 1065.38C589.096 1065.64 590.003 1065.93 590.967 1066.25C591.99 1066.55 593.028 1066.85 594.08 1067.17C595.162 1067.47 596.141 1067.85 597.018 1068.31C597.924 1068.78 598.641 1069.42 599.167 1070.24C599.722 1071.03 600 1072.08 600 1073.4C600 1074.63 599.766 1075.69 599.298 1076.6C598.831 1077.51 598.158 1078.25 597.281 1078.84C596.434 1079.42 595.425 1079.84 594.256 1080.11C593.116 1080.4 591.859 1080.55 590.485 1080.55Z" fill="#2C2925"/>
<path d="M574.791 1080.55C573.593 1080.55 572.658 1080.33 571.985 1079.89C571.313 1079.42 570.831 1078.82 570.538 1078.09C570.246 1077.33 570.1 1076.53 570.1 1075.68V1060.2H567.118V1056.96H570.188L570.889 1050.52H573.958V1056.96H578.299V1060.2H573.958V1075.11C573.958 1075.84 574.09 1076.4 574.353 1076.78C574.616 1077.13 575.113 1077.3 575.844 1077.3H578.299V1079.85C578.007 1079.99 577.656 1080.11 577.247 1080.2C576.838 1080.28 576.414 1080.36 575.975 1080.42C575.566 1080.5 575.171 1080.55 574.791 1080.55Z" fill="#2C2925"/>
<path d="M544.694 1080.02V1048.32H548.552V1059.85H548.859C549.444 1059.06 550.102 1058.42 550.832 1057.92C551.563 1057.43 552.367 1057.06 553.244 1056.83C554.15 1056.57 555.13 1056.43 556.182 1056.43C557.643 1056.43 558.915 1056.68 559.997 1057.18C561.107 1057.68 561.97 1058.48 562.584 1059.59C563.227 1060.7 563.548 1062.21 563.548 1064.11V1080.02H559.69V1064.63C559.69 1063.67 559.558 1062.88 559.295 1062.26C559.061 1061.65 558.725 1061.17 558.287 1060.82C557.877 1060.47 557.366 1060.22 556.752 1060.07C556.167 1059.93 555.509 1059.85 554.779 1059.85C553.697 1059.85 552.674 1060.12 551.709 1060.64C550.745 1061.14 549.97 1061.88 549.386 1062.88C548.83 1063.84 548.552 1065.04 548.552 1066.47V1080.02H544.694Z" fill="#2C2925"/>
<path d="M524.231 1088C523.12 1088 522.097 1087.77 521.162 1087.3C520.226 1086.86 519.481 1086.22 518.925 1085.37C518.37 1084.52 518.092 1083.51 518.092 1082.34C518.092 1081.06 518.443 1079.99 519.145 1079.14C519.875 1078.3 520.738 1077.67 521.732 1077.26C521.001 1076.91 520.431 1076.43 520.022 1075.81C519.612 1075.17 519.408 1074.47 519.408 1073.71C519.408 1072.68 519.773 1071.82 520.504 1071.12C521.264 1070.42 522.185 1069.95 523.266 1069.72C522.272 1069.08 521.483 1068.26 520.899 1067.26C520.343 1066.24 520.065 1065.11 520.065 1063.89C520.065 1062.43 520.402 1061.14 521.074 1060.03C521.775 1058.92 522.828 1058.04 524.231 1057.4C525.663 1056.76 527.403 1056.43 529.449 1056.43C530.384 1056.43 531.261 1056.51 532.08 1056.65C532.898 1056.77 533.629 1056.97 534.272 1057.27C535.295 1056.8 536.055 1056.2 536.552 1055.47C537.078 1054.74 537.4 1053.99 537.517 1053.23H541.331C541.331 1054.11 541.127 1054.94 540.718 1055.73C540.338 1056.49 539.811 1057.14 539.139 1057.66C538.467 1058.16 537.648 1058.49 536.684 1058.67C537.414 1059.37 537.955 1060.16 538.306 1061.04C538.686 1061.91 538.876 1062.86 538.876 1063.89C538.876 1065.35 538.525 1066.65 537.824 1067.79C537.151 1068.9 536.128 1069.78 534.754 1070.42C533.38 1071.06 531.656 1071.38 529.58 1071.38H525.985C525.196 1071.38 524.552 1071.54 524.056 1071.87C523.559 1072.16 523.31 1072.64 523.31 1073.31C523.31 1073.9 523.559 1074.38 524.056 1074.76C524.552 1075.11 525.196 1075.29 525.985 1075.29H535.368C537.064 1075.29 538.452 1075.86 539.534 1077C540.615 1078.11 541.156 1079.54 541.156 1081.29C541.156 1082.55 540.834 1083.67 540.191 1084.67C539.577 1085.69 538.701 1086.49 537.561 1087.08C536.45 1087.69 535.149 1088 533.658 1088H524.231ZM525.327 1085.06H533.614C534.287 1085.06 534.9 1084.92 535.456 1084.62C536.011 1084.36 536.45 1083.98 536.771 1083.48C537.093 1082.99 537.254 1082.45 537.254 1081.86C537.254 1080.87 536.961 1080.08 536.377 1079.49C535.792 1078.91 535.061 1078.62 534.184 1078.62H525.327C524.392 1078.62 523.602 1078.94 522.959 1079.58C522.316 1080.2 521.995 1080.96 521.995 1081.86C521.995 1082.83 522.316 1083.6 522.959 1084.19C523.602 1084.77 524.392 1085.06 525.327 1085.06ZM529.493 1068.49C531.363 1068.49 532.752 1068.08 533.658 1067.26C534.564 1066.44 535.017 1065.32 535.017 1063.89C535.017 1062.48 534.564 1061.37 533.658 1060.56C532.752 1059.74 531.363 1059.33 529.493 1059.33C527.622 1059.33 526.219 1059.74 525.283 1060.56C524.377 1061.37 523.924 1062.48 523.924 1063.89C523.924 1064.79 524.129 1065.6 524.538 1066.3C524.947 1067 525.561 1067.54 526.379 1067.92C527.198 1068.3 528.236 1068.49 529.493 1068.49Z" fill="#2C2925"/>
<path d="M510.48 1052.62V1048.32H514.339V1052.62H510.48ZM510.48 1080.02V1056.96H514.339V1080.02H510.48Z" fill="#2C2925"/>
<path d="M495.919 1080.02V1056.96H499.032L499.383 1060.78H499.69C499.924 1060.04 500.245 1059.36 500.654 1058.71C501.064 1058.04 501.619 1057.5 502.321 1057.09C503.022 1056.65 503.885 1056.44 504.908 1056.44C505.346 1056.44 505.741 1056.48 506.092 1056.57C506.472 1056.63 506.749 1056.7 506.925 1056.79V1060.34H505.478C504.484 1060.34 503.621 1060.51 502.891 1060.86C502.189 1061.18 501.604 1061.65 501.137 1062.27C500.669 1062.88 500.318 1063.61 500.084 1064.46C499.88 1065.31 499.777 1066.21 499.777 1067.18V1080.02H495.919Z" fill="#2C2925"/>
<path d="M468.666 1080.02L461.694 1056.96H465.684L469.192 1069.63C469.367 1070.24 469.528 1070.92 469.674 1071.65C469.849 1072.35 470.01 1073.01 470.156 1073.62C470.332 1074.2 470.449 1074.66 470.507 1074.98H470.77C470.887 1074.42 471.019 1073.8 471.165 1073.09C471.34 1072.39 471.486 1071.72 471.603 1071.08C471.749 1070.43 471.866 1069.94 471.954 1069.59L475.111 1056.96H479.277L482.478 1069.59C482.594 1070.08 482.726 1070.67 482.872 1071.34C483.018 1071.98 483.164 1072.63 483.311 1073.27C483.486 1073.91 483.603 1074.48 483.661 1074.98H483.924C484.041 1074.51 484.173 1073.97 484.319 1073.36C484.465 1072.71 484.626 1072.07 484.801 1071.43C484.977 1070.76 485.138 1070.17 485.284 1069.67L488.748 1056.96H492.431L485.503 1080.02H481.557L478.575 1068.1C478.458 1067.54 478.312 1066.9 478.137 1066.17C477.961 1065.41 477.786 1064.65 477.61 1063.89C477.464 1063.1 477.333 1062.41 477.216 1061.83H476.953C476.894 1062.27 476.792 1062.82 476.646 1063.49C476.529 1064.16 476.383 1064.91 476.207 1065.73C476.032 1066.52 475.827 1067.31 475.593 1068.1L472.612 1080.02H468.666Z" fill="#2C2925"/>
<path d="M444.113 1088C443.411 1088 442.797 1087.94 442.271 1087.82C441.774 1087.74 441.438 1087.68 441.263 1087.65V1084.84H443.192C443.893 1084.84 444.58 1084.7 445.253 1084.41C445.925 1084.11 446.554 1083.62 447.138 1082.91C447.723 1082.21 448.22 1081.25 448.629 1080.02L439.684 1056.96H443.718L448.322 1068.84C448.527 1069.4 448.76 1070.08 449.024 1070.9C449.316 1071.69 449.594 1072.51 449.857 1073.36C450.149 1074.2 450.383 1074.95 450.558 1075.59H450.821C450.938 1075.13 451.084 1074.6 451.26 1074.01C451.435 1073.43 451.611 1072.83 451.786 1072.22C451.991 1071.57 452.181 1070.97 452.356 1070.42C452.561 1069.84 452.721 1069.32 452.838 1068.89L456.741 1056.96H460.643L452.838 1079.36C452.4 1080.62 451.917 1081.77 451.391 1082.83C450.865 1083.91 450.281 1084.83 449.637 1085.59C448.994 1086.35 448.22 1086.93 447.314 1087.34C446.407 1087.78 445.34 1088 444.113 1088Z" fill="#2C2925"/>
<path d="M424.033 1080.55C423.185 1080.55 422.338 1080.45 421.49 1080.24C420.642 1080.04 419.853 1079.7 419.122 1079.23C418.391 1078.77 417.807 1078.12 417.368 1077.3C416.93 1076.46 416.71 1075.4 416.71 1074.15C416.71 1072.57 417.09 1071.27 417.85 1070.25C418.611 1069.22 419.663 1068.43 421.008 1067.88C422.381 1067.29 424.004 1066.9 425.875 1066.69C427.745 1066.46 429.777 1066.34 431.969 1066.34V1063.71C431.969 1062.87 431.823 1062.13 431.531 1061.52C431.239 1060.91 430.712 1060.44 429.952 1060.12C429.222 1059.77 428.169 1059.59 426.795 1059.59C425.48 1059.59 424.428 1059.77 423.638 1060.12C422.878 1060.44 422.338 1060.86 422.016 1061.39C421.724 1061.92 421.578 1062.5 421.578 1063.14V1063.8H417.85C417.821 1063.65 417.807 1063.51 417.807 1063.36C417.807 1063.22 417.807 1063.04 417.807 1062.84C417.807 1061.43 418.187 1060.26 418.947 1059.33C419.736 1058.36 420.832 1057.65 422.235 1057.18C423.638 1056.68 425.246 1056.44 427.058 1056.44C428.988 1056.44 430.595 1056.71 431.882 1057.27C433.197 1057.82 434.176 1058.61 434.819 1059.64C435.492 1060.66 435.828 1061.89 435.828 1063.32V1075.81C435.828 1076.37 435.959 1076.76 436.223 1077C436.486 1077.2 436.807 1077.3 437.187 1077.3H438.897V1079.85C438.488 1080.02 438.035 1080.17 437.538 1080.28C437.041 1080.43 436.471 1080.5 435.828 1080.5C435.068 1080.5 434.439 1080.34 433.942 1080.02C433.446 1079.73 433.066 1079.32 432.802 1078.79C432.539 1078.24 432.364 1077.63 432.276 1076.95H431.969C431.443 1077.68 430.771 1078.33 429.952 1078.88C429.163 1079.41 428.272 1079.82 427.278 1080.11C426.284 1080.4 425.202 1080.55 424.033 1080.55ZM424.998 1077.3C425.933 1077.3 426.81 1077.16 427.628 1076.87C428.476 1076.57 429.222 1076.16 429.865 1075.64C430.508 1075.08 431.019 1074.42 431.399 1073.66C431.779 1072.9 431.969 1072.07 431.969 1071.17V1069.24C429.602 1069.24 427.585 1069.37 425.918 1069.63C424.252 1069.89 422.966 1070.36 422.06 1071.03C421.183 1071.71 420.744 1072.66 420.744 1073.88C420.744 1074.67 420.92 1075.32 421.271 1075.81C421.621 1076.31 422.118 1076.69 422.761 1076.95C423.404 1077.19 424.15 1077.3 424.998 1077.3Z" fill="#2C2925"/>
<path d="M408.397 1080.02V1048.32H412.256V1080.02H408.397Z" fill="#2C2925"/>
<path d="M379.982 1080.02V1049.95H394.846C396.922 1049.95 398.646 1050.34 400.02 1051.13C401.394 1051.89 402.417 1052.96 403.089 1054.33C403.791 1055.7 404.142 1057.3 404.142 1059.11C404.142 1060.95 403.762 1062.59 403.002 1064.02C402.242 1065.42 401.16 1066.52 399.757 1067.31C398.383 1068.1 396.732 1068.49 394.802 1068.49H384.147V1080.02H379.982ZM384.147 1064.9H394.539C396.176 1064.9 397.477 1064.38 398.442 1063.36C399.436 1062.34 399.932 1060.94 399.932 1059.15C399.932 1057.95 399.728 1056.95 399.319 1056.13C398.909 1055.31 398.31 1054.68 397.521 1054.24C396.732 1053.78 395.738 1053.54 394.539 1053.54H384.147V1064.9Z" fill="#2C2925"/>
<path d="M345.367 1080.02V1056.96H348.48L348.831 1060.42H349.138C349.751 1059.49 350.438 1058.73 351.198 1058.14C351.988 1057.56 352.85 1057.14 353.785 1056.87C354.75 1056.58 355.773 1056.44 356.855 1056.44C358.316 1056.44 359.588 1056.68 360.669 1057.18C361.78 1057.68 362.643 1058.48 363.256 1059.59C363.9 1060.7 364.221 1062.21 364.221 1064.11V1080.02H360.362V1064.63C360.362 1063.67 360.231 1062.88 359.968 1062.27C359.734 1061.65 359.398 1061.17 358.959 1060.82C358.55 1060.47 358.039 1060.22 357.425 1060.07C356.84 1059.93 356.182 1059.85 355.452 1059.85C354.37 1059.85 353.347 1060.12 352.382 1060.64C351.418 1061.17 350.643 1061.93 350.058 1062.92C349.503 1063.92 349.225 1065.1 349.225 1066.47V1080.02H345.367Z" fill="#2C2925"/>
<path d="M327.26 1080.55C326.412 1080.55 325.564 1080.45 324.716 1080.24C323.869 1080.04 323.079 1079.7 322.349 1079.23C321.618 1078.77 321.033 1078.12 320.595 1077.3C320.156 1076.46 319.937 1075.4 319.937 1074.15C319.937 1072.57 320.317 1071.27 321.077 1070.25C321.837 1069.22 322.889 1068.43 324.234 1067.88C325.608 1067.29 327.23 1066.9 329.101 1066.69C330.972 1066.46 333.004 1066.34 335.196 1066.34V1063.71C335.196 1062.87 335.05 1062.13 334.757 1061.52C334.465 1060.91 333.939 1060.44 333.179 1060.12C332.448 1059.77 331.396 1059.59 330.022 1059.59C328.706 1059.59 327.654 1059.77 326.865 1060.12C326.105 1060.44 325.564 1060.86 325.243 1061.39C324.95 1061.92 324.804 1062.5 324.804 1063.14V1063.8H321.077C321.048 1063.65 321.033 1063.51 321.033 1063.36C321.033 1063.22 321.033 1063.04 321.033 1062.84C321.033 1061.43 321.413 1060.26 322.173 1059.33C322.962 1058.36 324.059 1057.65 325.462 1057.18C326.865 1056.68 328.473 1056.44 330.285 1056.44C332.214 1056.44 333.822 1056.71 335.108 1057.27C336.424 1057.82 337.403 1058.61 338.046 1059.64C338.718 1060.66 339.054 1061.89 339.054 1063.32V1075.81C339.054 1076.37 339.186 1076.76 339.449 1077C339.712 1077.2 340.034 1077.3 340.414 1077.3H342.124V1079.85C341.715 1080.02 341.261 1080.17 340.765 1080.28C340.268 1080.43 339.698 1080.5 339.054 1080.5C338.294 1080.5 337.666 1080.34 337.169 1080.02C336.672 1079.73 336.292 1079.32 336.029 1078.79C335.766 1078.24 335.591 1077.63 335.503 1076.95H335.196C334.67 1077.68 333.997 1078.33 333.179 1078.88C332.39 1079.41 331.498 1079.82 330.504 1080.11C329.51 1080.4 328.429 1080.55 327.26 1080.55ZM328.224 1077.3C329.16 1077.3 330.037 1077.16 330.855 1076.87C331.703 1076.57 332.448 1076.16 333.091 1075.64C333.734 1075.08 334.246 1074.42 334.626 1073.66C335.006 1072.9 335.196 1072.07 335.196 1071.17V1069.24C332.828 1069.24 330.811 1069.37 329.145 1069.63C327.479 1069.89 326.193 1070.36 325.286 1071.03C324.409 1071.71 323.971 1072.66 323.971 1073.88C323.971 1074.67 324.146 1075.32 324.497 1075.81C324.848 1076.31 325.345 1076.69 325.988 1076.95C326.631 1077.19 327.376 1077.3 328.224 1077.3Z" fill="#2C2925"/>
<path d="M311.625 1052.62V1048.32H315.484V1052.62H311.625ZM311.625 1080.02V1056.96H315.484V1080.02H311.625Z" fill="#2C2925"/>
<path d="M297.343 1080.55C295.764 1080.55 294.376 1080.39 293.177 1080.06C291.979 1079.74 290.985 1079.27 290.196 1078.66C289.407 1078.05 288.807 1077.32 288.398 1076.47C287.989 1075.62 287.784 1074.66 287.784 1073.58C287.784 1073.43 287.784 1073.3 287.784 1073.18C287.784 1073.03 287.799 1072.92 287.828 1072.83H291.643C291.614 1072.95 291.599 1073.05 291.599 1073.14C291.599 1073.22 291.599 1073.31 291.599 1073.4C291.628 1074.42 291.891 1075.23 292.388 1075.81C292.914 1076.4 293.63 1076.8 294.537 1077.04C295.443 1077.27 296.451 1077.39 297.562 1077.39C298.527 1077.39 299.418 1077.27 300.237 1077.04C301.055 1076.78 301.698 1076.4 302.166 1075.9C302.663 1075.37 302.912 1074.72 302.912 1073.93C302.912 1072.96 302.59 1072.23 301.947 1071.73C301.333 1071.21 300.515 1070.8 299.491 1070.51C298.468 1070.21 297.401 1069.91 296.291 1069.59C295.355 1069.32 294.42 1069.03 293.484 1068.71C292.549 1068.39 291.701 1067.99 290.941 1067.53C290.21 1067.06 289.611 1066.46 289.143 1065.73C288.705 1064.97 288.486 1064.02 288.486 1062.88C288.486 1061.85 288.69 1060.95 289.1 1060.16C289.538 1059.37 290.152 1058.7 290.941 1058.14C291.73 1057.59 292.68 1057.18 293.791 1056.92C294.931 1056.62 296.188 1056.48 297.562 1056.48C299.024 1056.48 300.295 1056.64 301.377 1056.96C302.488 1057.28 303.408 1057.73 304.139 1058.32C304.87 1058.9 305.411 1059.58 305.762 1060.34C306.112 1061.07 306.288 1061.85 306.288 1062.7C306.288 1062.88 306.288 1063.05 306.288 1063.23C306.288 1063.37 306.273 1063.49 306.244 1063.58H302.473V1063.1C302.473 1062.51 302.312 1061.96 301.991 1061.43C301.698 1060.88 301.172 1060.44 300.412 1060.12C299.681 1059.77 298.658 1059.59 297.343 1059.59C296.495 1059.59 295.764 1059.66 295.151 1059.81C294.537 1059.93 294.025 1060.13 293.616 1060.42C293.207 1060.69 292.9 1061.01 292.695 1061.39C292.49 1061.74 292.388 1062.15 292.388 1062.61C292.388 1063.37 292.637 1063.96 293.134 1064.37C293.63 1064.78 294.288 1065.11 295.107 1065.38C295.954 1065.64 296.861 1065.93 297.825 1066.25C298.848 1066.55 299.886 1066.85 300.938 1067.17C302.02 1067.47 302.999 1067.85 303.876 1068.31C304.782 1068.78 305.499 1069.42 306.025 1070.24C306.58 1071.03 306.858 1072.08 306.858 1073.4C306.858 1074.63 306.624 1075.69 306.156 1076.6C305.689 1077.51 305.016 1078.25 304.139 1078.84C303.292 1079.42 302.283 1079.84 301.114 1080.11C299.974 1080.4 298.717 1080.55 297.343 1080.55Z" fill="#2C2925"/>
<path d="M256.667 1080.02L268.55 1049.95H274.031L285.957 1080.02H281.441L278.503 1072.57H263.858L260.965 1080.02H256.667ZM265.218 1069.02H277.1L273.461 1059.59C273.373 1059.33 273.242 1058.96 273.066 1058.5C272.891 1058.03 272.701 1057.52 272.496 1056.96C272.292 1056.38 272.087 1055.79 271.882 1055.21C271.678 1054.59 271.488 1054.04 271.312 1053.54H271.049C270.845 1054.13 270.611 1054.8 270.348 1055.56C270.085 1056.32 269.822 1057.06 269.559 1057.79C269.296 1058.5 269.076 1059.09 268.901 1059.59L265.218 1069.02Z" fill="#2C2925"/>
<path d="M225.516 1080.02V1048.32H229.374V1059.85H229.681C230.266 1059.06 230.923 1058.42 231.654 1057.92C232.385 1057.43 233.189 1057.06 234.066 1056.83C234.972 1056.57 235.951 1056.43 237.004 1056.43C238.465 1056.43 239.737 1056.68 240.818 1057.18C241.929 1057.68 242.791 1058.48 243.405 1059.59C244.048 1060.7 244.37 1062.21 244.37 1064.11V1080.02H240.511V1064.63C240.511 1063.67 240.38 1062.88 240.117 1062.26C239.883 1061.65 239.547 1061.17 239.108 1060.82C238.699 1060.47 238.188 1060.22 237.574 1060.07C236.989 1059.93 236.331 1059.85 235.601 1059.85C234.519 1059.85 233.496 1060.12 232.531 1060.64C231.567 1061.14 230.792 1061.88 230.207 1062.88C229.652 1063.84 229.374 1065.04 229.374 1066.47V1080.02H225.516Z" fill="#2C2925"/>
<path d="M217.891 1080.55C216.693 1080.55 215.757 1080.33 215.085 1079.89C214.413 1079.42 213.93 1078.82 213.638 1078.09C213.346 1077.33 213.199 1076.53 213.199 1075.68V1060.2H210.218V1056.96H213.287L213.989 1050.52H217.058V1056.96H221.399V1060.2H217.058V1075.11C217.058 1075.84 217.19 1076.4 217.453 1076.78C217.716 1077.13 218.213 1077.3 218.943 1077.3H221.399V1079.85C221.107 1079.99 220.756 1080.11 220.347 1080.2C219.937 1080.28 219.513 1080.36 219.075 1080.42C218.666 1080.5 218.271 1080.55 217.891 1080.55Z" fill="#2C2925"/>
<path d="M195.022 1080.55C192.801 1080.55 191.017 1079.98 189.673 1078.84C188.328 1077.7 187.656 1075.71 187.656 1072.87V1056.96H191.514V1072.35C191.514 1073.31 191.631 1074.1 191.865 1074.72C192.099 1075.33 192.435 1075.81 192.874 1076.16C193.312 1076.51 193.824 1076.76 194.408 1076.91C195.022 1077.05 195.68 1077.13 196.381 1077.13C197.492 1077.13 198.515 1076.86 199.451 1076.34C200.386 1075.81 201.146 1075.05 201.731 1074.06C202.345 1073.04 202.652 1071.85 202.652 1070.51V1056.96H206.51V1080.02H203.397L203.046 1076.56H202.739C202.125 1077.49 201.424 1078.25 200.635 1078.84C199.875 1079.42 199.012 1079.85 198.048 1080.11C197.112 1080.4 196.104 1080.55 195.022 1080.55Z" fill="#2C2925"/>
<path d="M172.341 1080.55C170.003 1080.55 168.029 1080.12 166.422 1079.28C164.843 1078.4 163.63 1077.07 162.782 1075.29C161.964 1073.5 161.555 1071.24 161.555 1068.49C161.555 1065.71 161.964 1063.45 162.782 1061.7C163.63 1059.91 164.843 1058.6 166.422 1057.75C168.029 1056.87 170.003 1056.44 172.341 1056.44C174.68 1056.44 176.638 1056.87 178.217 1057.75C179.824 1058.6 181.038 1059.91 181.856 1061.7C182.675 1063.45 183.084 1065.71 183.084 1068.49C183.084 1071.24 182.675 1073.5 181.856 1075.29C181.038 1077.07 179.824 1078.4 178.217 1079.28C176.638 1080.12 174.68 1080.55 172.341 1080.55ZM172.341 1077.3C173.832 1077.3 175.074 1077.01 176.068 1076.43C177.062 1075.84 177.807 1074.94 178.304 1073.71C178.831 1072.45 179.094 1070.87 179.094 1068.97V1068.01C179.094 1066.08 178.831 1064.5 178.304 1063.27C177.807 1062.05 177.062 1061.14 176.068 1060.56C175.074 1059.97 173.832 1059.68 172.341 1059.68C170.85 1059.68 169.593 1059.97 168.57 1060.56C167.576 1061.14 166.831 1062.05 166.334 1063.27C165.837 1064.5 165.589 1066.08 165.589 1068.01V1068.97C165.589 1070.87 165.837 1072.45 166.334 1073.71C166.831 1074.94 167.576 1075.84 168.57 1076.43C169.593 1077.01 170.85 1077.3 172.341 1077.3Z" fill="#2C2925"/>
<path d="M145.16 1080.55C143.523 1080.55 141.945 1080.39 140.424 1080.06C138.934 1079.74 137.604 1079.23 136.434 1078.53C135.265 1077.8 134.33 1076.86 133.628 1075.72C132.956 1074.58 132.62 1073.18 132.62 1071.52C132.62 1071.37 132.62 1071.22 132.62 1071.08C132.649 1070.93 132.663 1070.78 132.663 1070.64H136.873C136.873 1070.73 136.858 1070.87 136.829 1071.08C136.829 1071.25 136.829 1071.41 136.829 1071.56C136.829 1072.73 137.18 1073.72 137.881 1074.54C138.583 1075.36 139.548 1075.97 140.775 1076.38C142.032 1076.76 143.45 1076.95 145.028 1076.95C145.73 1076.95 146.461 1076.91 147.221 1076.82C148.01 1076.73 148.755 1076.59 149.457 1076.38C150.188 1076.15 150.831 1075.86 151.386 1075.5C151.971 1075.12 152.424 1074.67 152.746 1074.15C153.096 1073.59 153.272 1072.92 153.272 1072.13C153.272 1071.14 152.979 1070.32 152.395 1069.67C151.839 1069 151.094 1068.46 150.159 1068.05C149.223 1067.61 148.156 1067.23 146.958 1066.91C145.788 1066.56 144.575 1066.23 143.318 1065.9C142.061 1065.58 140.834 1065.22 139.635 1064.81C138.466 1064.37 137.414 1063.84 136.478 1063.23C135.543 1062.59 134.783 1061.8 134.198 1060.86C133.643 1059.93 133.365 1058.79 133.365 1057.44C133.365 1056.19 133.614 1055.06 134.11 1054.07C134.637 1053.07 135.397 1052.24 136.391 1051.57C137.414 1050.87 138.671 1050.34 140.161 1049.99C141.652 1049.61 143.362 1049.42 145.292 1049.42C146.87 1049.42 148.332 1049.59 149.676 1049.95C151.05 1050.27 152.249 1050.78 153.272 1051.48C154.324 1052.15 155.143 1053.01 155.727 1054.07C156.312 1055.12 156.604 1056.39 156.604 1057.88V1058.41H152.482V1057.75C152.482 1056.76 152.176 1055.91 151.562 1055.21C150.948 1054.5 150.1 1053.96 149.019 1053.58C147.966 1053.2 146.768 1053.01 145.423 1053.01C143.669 1053.01 142.208 1053.19 141.038 1053.54C139.869 1053.86 138.992 1054.34 138.407 1054.99C137.852 1055.6 137.574 1056.3 137.574 1057.09C137.574 1058 137.852 1058.76 138.407 1059.37C138.992 1059.98 139.752 1060.5 140.688 1060.91C141.623 1061.29 142.69 1061.64 143.888 1061.96C145.087 1062.28 146.3 1062.62 147.528 1062.97C148.785 1063.29 149.998 1063.67 151.167 1064.11C152.366 1064.52 153.433 1065.04 154.368 1065.68C155.333 1066.3 156.093 1067.09 156.648 1068.05C157.203 1068.99 157.481 1070.14 157.481 1071.52C157.481 1073.65 156.955 1075.39 155.903 1076.73C154.85 1078.05 153.403 1079.01 151.562 1079.63C149.72 1080.24 147.586 1080.55 145.16 1080.55Z" fill="#2C2925"/>
<path d="M99.4956 1080.02V1048.32H103.354V1059.85H103.661C104.246 1059.06 104.903 1058.42 105.634 1057.92C106.365 1057.43 107.169 1057.06 108.046 1056.83C108.952 1056.57 109.931 1056.43 110.984 1056.43C112.445 1056.43 113.717 1056.68 114.798 1057.18C115.909 1057.68 116.771 1058.48 117.385 1059.59C118.028 1060.7 118.35 1062.21 118.35 1064.11V1080.02H114.491V1064.63C114.491 1063.67 114.36 1062.88 114.097 1062.26C113.863 1061.65 113.527 1061.17 113.088 1060.82C112.679 1060.47 112.168 1060.22 111.554 1060.07C110.969 1059.93 110.311 1059.85 109.581 1059.85C108.499 1059.85 107.476 1060.12 106.511 1060.64C105.547 1061.14 104.772 1061.88 104.187 1062.88C103.632 1063.84 103.354 1065.04 103.354 1066.47V1080.02H99.4956Z" fill="#2C2925"/>
<path d="M85.2116 1080.55C83.6331 1080.55 82.2446 1080.39 81.0461 1080.06C79.8476 1079.74 78.8537 1079.27 78.0645 1078.66C77.2752 1078.05 76.676 1077.32 76.2667 1076.47C75.8575 1075.62 75.6528 1074.66 75.6528 1073.58C75.6528 1073.43 75.6528 1073.3 75.6528 1073.18C75.6528 1073.03 75.6675 1072.92 75.6967 1072.83H79.5114C79.4822 1072.95 79.4676 1073.05 79.4676 1073.14C79.4676 1073.22 79.4676 1073.31 79.4676 1073.4C79.4968 1074.42 79.7599 1075.23 80.2568 1075.81C80.783 1076.4 81.4992 1076.8 82.4053 1077.04C83.3115 1077.27 84.32 1077.39 85.4308 1077.39C86.3954 1077.39 87.287 1077.27 88.1055 1077.04C88.924 1076.78 89.5671 1076.4 90.0348 1075.9C90.5317 1075.37 90.7802 1074.72 90.7802 1073.93C90.7802 1072.96 90.4586 1072.23 89.8155 1071.73C89.2017 1071.21 88.3832 1070.8 87.3601 1070.51C86.337 1070.21 85.27 1069.91 84.1592 1069.59C83.2238 1069.32 82.2884 1069.03 81.353 1068.71C80.4176 1068.39 79.5699 1067.99 78.8099 1067.53C78.0791 1067.06 77.4798 1066.46 77.0121 1065.73C76.5736 1064.97 76.3544 1064.02 76.3544 1062.88C76.3544 1061.85 76.559 1060.95 76.9683 1060.16C77.4067 1059.37 78.0206 1058.7 78.8099 1058.14C79.5991 1057.59 80.5491 1057.18 81.6599 1056.92C82.8 1056.62 84.0569 1056.48 85.4308 1056.48C86.8924 1056.48 88.164 1056.64 89.2455 1056.96C90.3563 1057.28 91.2771 1057.73 92.0079 1058.32C92.7387 1058.9 93.2795 1059.58 93.6303 1060.34C93.9811 1061.07 94.1564 1061.85 94.1564 1062.7C94.1564 1062.88 94.1564 1063.05 94.1564 1063.23C94.1564 1063.37 94.1418 1063.49 94.1126 1063.58H90.3417V1063.1C90.3417 1062.51 90.1809 1061.96 89.8594 1061.43C89.5671 1060.88 89.0409 1060.44 88.2809 1060.12C87.5501 1059.77 86.527 1059.59 85.2116 1059.59C84.3639 1059.59 83.6331 1059.66 83.0192 1059.81C82.4053 1059.93 81.8938 1060.13 81.4845 1060.42C81.0753 1060.69 80.7684 1061.01 80.5638 1061.39C80.3591 1061.74 80.2568 1062.15 80.2568 1062.61C80.2568 1063.37 80.5053 1063.96 81.0022 1064.37C81.4991 1064.78 82.1569 1065.11 82.9754 1065.38C83.8231 1065.64 84.7292 1065.93 85.6939 1066.25C86.717 1066.55 87.7547 1066.85 88.8071 1067.17C89.8886 1067.47 90.8679 1067.85 91.7448 1068.31C92.651 1068.78 93.3672 1069.42 93.8934 1070.24C94.4488 1071.03 94.7264 1072.08 94.7264 1073.4C94.7264 1074.63 94.4926 1075.69 94.0249 1076.6C93.5572 1077.51 92.8849 1078.25 92.0079 1078.84C91.1602 1079.42 90.1517 1079.84 88.9824 1080.11C87.8424 1080.4 86.5855 1080.55 85.2116 1080.55Z" fill="#2C2925"/>
<path d="M67.2959 1052.62V1048.32H71.1545V1052.62H67.2959ZM67.2959 1080.02V1056.96H71.1545V1080.02H67.2959Z" fill="#2C2925"/>
<path d="M59.6709 1080.55C58.4724 1080.55 57.5369 1080.33 56.8646 1079.89C56.1923 1079.42 55.71 1078.82 55.4177 1078.09C55.1253 1077.33 54.9792 1076.53 54.9792 1075.68V1060.2H51.9976V1056.96H55.0669L55.7684 1050.52H58.8377V1056.96H63.1787V1060.2H58.8377V1075.11C58.8377 1075.84 58.9693 1076.4 59.2324 1076.78C59.4955 1077.13 59.9924 1077.3 60.7232 1077.3H63.1787V1079.85C62.8863 1079.99 62.5355 1080.11 62.1263 1080.2C61.7171 1080.28 61.2932 1080.36 60.8547 1080.42C60.4455 1080.5 60.0509 1080.55 59.6709 1080.55Z" fill="#2C2925"/>
<path d="M44.4292 1052.62V1048.32H48.2878V1052.62H44.4292ZM44.4292 1080.02V1056.96H48.2878V1080.02H44.4292Z" fill="#2C2925"/>
<path d="M29.8696 1080.02V1056.96H32.9828L33.3336 1060.78H33.6405C33.8744 1060.04 34.1959 1059.36 34.6051 1058.71C35.0144 1058.04 35.5698 1057.5 36.2714 1057.09C36.9729 1056.65 37.8352 1056.44 38.8583 1056.44C39.2968 1056.44 39.6914 1056.48 40.0422 1056.57C40.4222 1056.63 40.6999 1056.7 40.8753 1056.79V1060.34H39.4284C38.4345 1060.34 37.5722 1060.51 36.8414 1060.86C36.1398 1061.18 35.5552 1061.65 35.0875 1062.27C34.6198 1062.88 34.269 1063.61 34.0351 1064.46C33.8305 1065.31 33.7282 1066.21 33.7282 1067.18V1080.02H29.8696Z" fill="#2C2925"/>
<path d="M0 1080.02V1049.95H15.522C17.2466 1049.95 18.7375 1050.25 19.9944 1050.87C21.2514 1051.45 22.216 1052.28 22.8883 1053.37C23.5899 1054.45 23.9407 1055.73 23.9407 1057.22C23.9407 1058.36 23.7361 1059.42 23.3268 1060.38C22.9176 1061.35 22.3476 1062.15 21.6168 1062.79C20.886 1063.43 20.0529 1063.92 19.1175 1064.24V1064.41C20.1698 1064.65 21.1198 1065.07 21.9676 1065.69C22.8153 1066.3 23.4876 1067.12 23.9845 1068.14C24.5107 1069.13 24.7738 1070.36 24.7738 1071.82C24.7738 1073.78 24.3645 1075.36 23.546 1076.56C22.7276 1077.76 21.6314 1078.63 20.2575 1079.19C18.8836 1079.74 17.3051 1080.02 15.522 1080.02H0ZM4.16552 1076.43H15.4781C16.9689 1076.43 18.1821 1076.05 19.1175 1075.29C20.0529 1074.5 20.5206 1073.2 20.5206 1071.38C20.5206 1070.27 20.316 1069.35 19.9067 1068.62C19.4975 1067.86 18.8982 1067.31 18.109 1066.96C17.3197 1066.58 16.3259 1066.39 15.1274 1066.39H4.16552V1076.43ZM4.16552 1062.84H14.7327C15.7266 1062.84 16.5889 1062.65 17.3197 1062.27C18.0505 1061.86 18.6205 1061.3 19.0298 1060.6C19.4682 1059.87 19.6875 1059.05 19.6875 1058.14C19.6875 1056.57 19.2636 1055.41 18.4159 1054.68C17.5682 1053.92 16.4428 1053.54 15.0397 1053.54H4.16552V1062.84Z" fill="#2C2925"/>
</svg>
