<svg width="864" height="600" viewBox="0 0 864 600" fill="none" xmlns="http://www.w3.org/2000/svg">
<path d="M510.179 589.549C508.815 589.549 507.615 589.41 506.58 589.132C505.544 588.854 504.685 588.45 504.004 587.92C503.322 587.389 502.804 586.758 502.45 586.025C502.097 585.293 501.92 584.46 501.92 583.525C501.92 583.399 501.92 583.285 501.92 583.184C501.92 583.058 501.933 582.957 501.958 582.881H505.254C505.228 582.982 505.216 583.07 505.216 583.146C505.216 583.222 505.216 583.298 505.216 583.374C505.241 584.257 505.468 584.952 505.898 585.457C506.352 585.962 506.971 586.316 507.754 586.518C508.537 586.72 509.408 586.821 510.368 586.821C511.201 586.821 511.972 586.72 512.679 586.518C513.386 586.291 513.942 585.962 514.346 585.533C514.775 585.078 514.99 584.51 514.99 583.828C514.99 582.995 514.712 582.363 514.156 581.934C513.626 581.479 512.919 581.126 512.035 580.873C511.151 580.621 510.229 580.355 509.269 580.078C508.461 579.85 507.653 579.598 506.845 579.32C506.037 579.042 505.304 578.701 504.648 578.297C504.016 577.893 503.498 577.375 503.094 576.744C502.715 576.087 502.526 575.266 502.526 574.281C502.526 573.397 502.703 572.614 503.056 571.933C503.435 571.251 503.966 570.67 504.648 570.19C505.329 569.71 506.15 569.356 507.11 569.129C508.095 568.877 509.181 568.75 510.368 568.75C511.631 568.75 512.729 568.889 513.664 569.167C514.624 569.445 515.419 569.836 516.051 570.341C516.682 570.846 517.149 571.427 517.452 572.084C517.755 572.715 517.907 573.397 517.907 574.13C517.907 574.281 517.907 574.433 517.907 574.584C517.907 574.711 517.894 574.812 517.869 574.887H514.611V574.471C514.611 573.966 514.472 573.486 514.194 573.031C513.942 572.551 513.487 572.172 512.83 571.895C512.199 571.592 511.315 571.44 510.179 571.44C509.446 571.44 508.815 571.503 508.284 571.629C507.754 571.73 507.312 571.907 506.958 572.16C506.605 572.387 506.34 572.665 506.163 572.993C505.986 573.296 505.898 573.65 505.898 574.054C505.898 574.711 506.112 575.216 506.542 575.569C506.971 575.923 507.539 576.213 508.246 576.441C508.979 576.668 509.762 576.921 510.595 577.198C511.479 577.451 512.376 577.716 513.285 577.994C514.22 578.247 515.066 578.575 515.823 578.979C516.606 579.383 517.225 579.939 517.68 580.646C518.159 581.328 518.399 582.237 518.399 583.374C518.399 584.434 518.197 585.356 517.793 586.139C517.389 586.922 516.808 587.566 516.051 588.071C515.318 588.576 514.447 588.943 513.437 589.17C512.452 589.422 511.366 589.549 510.179 589.549Z" fill="#2C2925"/>
<path d="M496.621 589.549C495.585 589.549 494.777 589.359 494.196 588.981C493.615 588.576 493.199 588.059 492.946 587.427C492.694 586.771 492.567 586.076 492.567 585.344V571.971H489.991V569.167H492.643L493.249 563.598H495.901V569.167H499.652V571.971H495.901V584.851C495.901 585.483 496.015 585.962 496.242 586.291C496.469 586.594 496.899 586.745 497.53 586.745H499.652V588.943C499.399 589.069 499.096 589.17 498.742 589.246C498.389 589.321 498.023 589.385 497.644 589.435C497.29 589.511 496.949 589.549 496.621 589.549Z" fill="#2C2925"/>
<path d="M470.615 589.094V561.704H473.949V571.668H474.214C474.719 570.986 475.288 570.43 475.919 570.001C476.55 569.571 477.245 569.256 478.003 569.054C478.786 568.826 479.632 568.713 480.541 568.713C481.804 568.713 482.902 568.927 483.837 569.357C484.796 569.786 485.541 570.481 486.072 571.44C486.627 572.4 486.905 573.701 486.905 575.342V589.094H483.572V575.797C483.572 574.964 483.458 574.282 483.231 573.751C483.028 573.221 482.738 572.804 482.359 572.501C482.006 572.198 481.564 571.983 481.033 571.857C480.528 571.731 479.96 571.668 479.328 571.668C478.394 571.668 477.51 571.895 476.677 572.35C475.843 572.779 475.174 573.423 474.669 574.282C474.189 575.115 473.949 576.151 473.949 577.388V589.094H470.615Z" fill="#2C2925"/>
<path d="M452.936 595.99C451.976 595.99 451.092 595.788 450.284 595.384C449.476 595.005 448.831 594.449 448.352 593.717C447.872 592.984 447.632 592.113 447.632 591.103C447.632 589.991 447.935 589.069 448.541 588.337C449.172 587.605 449.917 587.062 450.776 586.708C450.145 586.405 449.652 585.988 449.299 585.458C448.945 584.902 448.768 584.296 448.768 583.639C448.768 582.755 449.084 582.01 449.715 581.404C450.372 580.798 451.168 580.394 452.102 580.192C451.243 579.636 450.562 578.929 450.056 578.07C449.577 577.186 449.337 576.214 449.337 575.153C449.337 573.891 449.627 572.779 450.208 571.82C450.814 570.86 451.723 570.102 452.936 569.547C454.173 568.991 455.676 568.713 457.444 568.713C458.252 568.713 459.01 568.776 459.717 568.902C460.424 569.003 461.055 569.18 461.611 569.433C462.495 569.029 463.152 568.511 463.581 567.88C464.036 567.248 464.313 566.604 464.414 565.948H467.71C467.71 566.705 467.533 567.425 467.18 568.107C466.852 568.764 466.397 569.319 465.816 569.774C465.235 570.203 464.528 570.494 463.695 570.645C464.326 571.251 464.793 571.933 465.096 572.691C465.425 573.449 465.589 574.269 465.589 575.153C465.589 576.416 465.286 577.54 464.68 578.525C464.099 579.485 463.215 580.242 462.028 580.798C460.841 581.354 459.351 581.632 457.557 581.632H454.451C453.769 581.632 453.213 581.77 452.784 582.048C452.355 582.301 452.14 582.718 452.14 583.298C452.14 583.804 452.355 584.22 452.784 584.549C453.213 584.852 453.769 585.003 454.451 585.003H462.558C464.023 585.003 465.223 585.496 466.157 586.481C467.092 587.44 467.559 588.678 467.559 590.193C467.559 591.279 467.281 592.252 466.725 593.11C466.195 593.994 465.437 594.689 464.452 595.194C463.493 595.724 462.369 595.99 461.081 595.99H452.936ZM453.883 593.451H461.043C461.624 593.451 462.154 593.325 462.634 593.073C463.114 592.845 463.493 592.517 463.77 592.088C464.048 591.658 464.187 591.191 464.187 590.686C464.187 589.827 463.934 589.145 463.429 588.64C462.924 588.135 462.293 587.882 461.535 587.882H453.883C453.074 587.882 452.393 588.16 451.837 588.716C451.281 589.246 451.003 589.903 451.003 590.686C451.003 591.519 451.281 592.189 451.837 592.694C452.393 593.199 453.074 593.451 453.883 593.451ZM457.482 579.131C459.098 579.131 460.298 578.778 461.081 578.07C461.864 577.363 462.255 576.391 462.255 575.153C462.255 573.941 461.864 572.981 461.081 572.274C460.298 571.567 459.098 571.213 457.482 571.213C455.865 571.213 454.653 571.567 453.845 572.274C453.062 572.981 452.67 573.941 452.67 575.153C452.67 575.936 452.847 576.631 453.201 577.237C453.554 577.843 454.085 578.31 454.792 578.639C455.499 578.967 456.396 579.131 457.482 579.131Z" fill="#2C2925"/>
<path d="M441.054 565.417V561.704H444.387V565.417H441.054ZM441.054 589.094V569.167H444.387V589.094H441.054Z" fill="#2C2925"/>
<path d="M428.475 589.095V569.168H431.164L431.467 572.464H431.733C431.935 571.833 432.212 571.239 432.566 570.683C432.92 570.102 433.399 569.635 434.006 569.282C434.612 568.903 435.357 568.713 436.241 568.713C436.62 568.713 436.961 568.751 437.264 568.827C437.592 568.878 437.832 568.941 437.983 569.016V572.085H436.733C435.875 572.085 435.13 572.237 434.498 572.54C433.892 572.817 433.387 573.222 432.983 573.752C432.579 574.282 432.276 574.914 432.074 575.646C431.897 576.379 431.808 577.162 431.808 577.995V589.095H428.475Z" fill="#2C2925"/>
<path d="M404.925 589.094L398.901 569.167H402.349L405.38 580.116C405.531 580.646 405.67 581.227 405.796 581.858C405.948 582.464 406.087 583.033 406.213 583.563C406.364 584.068 406.466 584.46 406.516 584.737H406.743C406.844 584.258 406.958 583.715 407.084 583.108C407.236 582.502 407.362 581.921 407.463 581.366C407.589 580.81 407.69 580.381 407.766 580.078L410.494 569.167H414.093L416.858 580.078C416.959 580.507 417.073 581.012 417.199 581.593C417.326 582.149 417.452 582.704 417.578 583.26C417.73 583.816 417.831 584.308 417.881 584.737H418.109C418.21 584.333 418.323 583.866 418.449 583.336C418.576 582.78 418.715 582.224 418.866 581.669C419.018 581.088 419.157 580.583 419.283 580.153L422.276 569.167H425.458L419.472 589.094H416.063L413.487 578.79C413.386 578.31 413.259 577.754 413.108 577.123C412.956 576.466 412.805 575.809 412.653 575.153C412.527 574.471 412.413 573.877 412.312 573.372H412.085C412.034 573.751 411.946 574.231 411.82 574.812C411.719 575.393 411.592 576.037 411.441 576.744C411.289 577.426 411.113 578.108 410.911 578.79L408.334 589.094H404.925Z" fill="#2C2925"/>
<path d="M383.714 595.989C383.108 595.989 382.577 595.938 382.123 595.837C381.694 595.762 381.403 595.711 381.252 595.686V593.261H382.918C383.525 593.261 384.118 593.135 384.699 592.882C385.28 592.63 385.823 592.201 386.328 591.594C386.833 590.988 387.262 590.155 387.616 589.094L379.888 569.167H383.373L387.351 579.434C387.528 579.913 387.73 580.507 387.957 581.214C388.21 581.896 388.449 582.603 388.677 583.336C388.929 584.068 389.131 584.712 389.283 585.268H389.51C389.611 584.864 389.738 584.409 389.889 583.904C390.041 583.399 390.192 582.881 390.344 582.351C390.52 581.795 390.685 581.277 390.836 580.797C391.013 580.292 391.152 579.85 391.253 579.471L394.625 569.167H397.996L391.253 588.526C390.874 589.612 390.457 590.609 390.003 591.519C389.548 592.453 389.043 593.249 388.487 593.905C387.932 594.562 387.262 595.067 386.479 595.421C385.697 595.8 384.775 595.989 383.714 595.989Z" fill="#2C2925"/>
<path d="M366.365 589.55C365.632 589.55 364.9 589.461 364.167 589.284C363.435 589.108 362.753 588.817 362.122 588.413C361.49 588.009 360.985 587.453 360.606 586.746C360.228 586.014 360.038 585.105 360.038 584.019C360.038 582.655 360.366 581.531 361.023 580.647C361.68 579.763 362.589 579.081 363.751 578.601C364.938 578.096 366.339 577.755 367.956 577.578C369.572 577.376 371.327 577.275 373.222 577.275V575.002C373.222 574.27 373.095 573.638 372.843 573.108C372.59 572.578 372.136 572.173 371.479 571.896C370.848 571.593 369.938 571.441 368.751 571.441C367.615 571.441 366.706 571.593 366.024 571.896C365.367 572.173 364.9 572.54 364.622 572.994C364.369 573.449 364.243 573.954 364.243 574.51V575.078H361.023C360.998 574.952 360.985 574.825 360.985 574.699C360.985 574.573 360.985 574.421 360.985 574.244C360.985 573.032 361.314 572.022 361.97 571.214C362.652 570.38 363.599 569.762 364.811 569.357C366.024 568.928 367.413 568.713 368.979 568.713C370.646 568.713 372.035 568.953 373.146 569.433C374.282 569.913 375.129 570.595 375.684 571.479C376.265 572.363 376.555 573.424 376.555 574.661V585.458C376.555 585.938 376.669 586.279 376.896 586.481C377.124 586.658 377.402 586.746 377.73 586.746H379.207V588.944C378.854 589.095 378.462 589.221 378.033 589.322C377.604 589.449 377.111 589.512 376.555 589.512C375.899 589.512 375.356 589.373 374.926 589.095C374.497 588.842 374.169 588.489 373.941 588.034C373.714 587.554 373.563 587.024 373.487 586.443H373.222C372.767 587.075 372.186 587.63 371.479 588.11C370.797 588.565 370.027 588.918 369.168 589.171C368.309 589.423 367.375 589.55 366.365 589.55ZM367.198 586.746C368.006 586.746 368.764 586.62 369.471 586.367C370.204 586.115 370.848 585.761 371.403 585.307C371.959 584.827 372.401 584.259 372.729 583.602C373.058 582.945 373.222 582.225 373.222 581.442V579.776C371.176 579.776 369.433 579.889 367.994 580.117C366.554 580.344 365.443 580.748 364.66 581.329C363.902 581.91 363.523 582.731 363.523 583.791C363.523 584.473 363.675 585.029 363.978 585.458C364.281 585.888 364.71 586.216 365.266 586.443C365.822 586.645 366.466 586.746 367.198 586.746Z" fill="#2C2925"/>
<path d="M352.855 589.094V561.704H356.189V589.094H352.855Z" fill="#2C2925"/>
<path d="M328.305 589.094V563.106H341.147C342.94 563.106 344.431 563.447 345.618 564.129C346.805 564.785 347.689 565.707 348.269 566.894C348.876 568.081 349.179 569.458 349.179 571.024C349.179 572.615 348.85 574.029 348.194 575.267C347.537 576.479 346.603 577.426 345.39 578.108C344.203 578.79 342.776 579.131 341.109 579.131H331.904V589.094H328.305ZM331.904 576.024H340.882C342.296 576.024 343.42 575.582 344.254 574.699C345.113 573.815 345.542 572.602 345.542 571.062C345.542 570.026 345.365 569.155 345.011 568.448C344.658 567.74 344.14 567.197 343.458 566.819C342.776 566.415 341.918 566.212 340.882 566.212H331.904V576.024Z" fill="#2C2925"/>
<path d="M298.396 589.095V569.168H301.086L301.389 572.161H301.654C302.185 571.353 302.778 570.696 303.435 570.191C304.117 569.686 304.862 569.32 305.67 569.092C306.504 568.84 307.388 568.713 308.322 568.713C309.585 568.713 310.683 568.928 311.618 569.357C312.578 569.787 313.323 570.481 313.853 571.441C314.409 572.401 314.687 573.701 314.687 575.343V589.095H311.353V575.798C311.353 574.964 311.239 574.282 311.012 573.752C310.81 573.222 310.519 572.805 310.14 572.502C309.787 572.199 309.345 571.984 308.815 571.858C308.309 571.731 307.741 571.668 307.11 571.668C306.175 571.668 305.291 571.896 304.458 572.35C303.624 572.805 302.955 573.462 302.45 574.32C301.97 575.179 301.73 576.202 301.73 577.389V589.095H298.396Z" fill="#2C2925"/>
<path d="M282.752 589.55C282.02 589.55 281.288 589.461 280.555 589.284C279.823 589.108 279.141 588.817 278.509 588.413C277.878 588.009 277.373 587.453 276.994 586.746C276.615 586.014 276.426 585.105 276.426 584.019C276.426 582.655 276.754 581.531 277.411 580.647C278.067 579.763 278.977 579.081 280.138 578.601C281.325 578.096 282.727 577.755 284.343 577.578C285.96 577.376 287.715 577.275 289.609 577.275V575.002C289.609 574.27 289.483 573.638 289.231 573.108C288.978 572.578 288.523 572.173 287.867 571.896C287.235 571.593 286.326 571.441 285.139 571.441C284.003 571.441 283.093 571.593 282.411 571.896C281.755 572.173 281.288 572.54 281.01 572.994C280.757 573.449 280.631 573.954 280.631 574.51V575.078H277.411C277.386 574.952 277.373 574.825 277.373 574.699C277.373 574.573 277.373 574.421 277.373 574.244C277.373 573.032 277.701 572.022 278.358 571.214C279.04 570.38 279.987 569.762 281.199 569.357C282.411 568.928 283.801 568.713 285.366 568.713C287.033 568.713 288.422 568.953 289.534 569.433C290.67 569.913 291.516 570.595 292.072 571.479C292.653 572.363 292.943 573.424 292.943 574.661V585.458C292.943 585.938 293.057 586.279 293.284 586.481C293.511 586.658 293.789 586.746 294.118 586.746H295.595V588.944C295.241 589.095 294.85 589.221 294.421 589.322C293.991 589.449 293.499 589.512 292.943 589.512C292.287 589.512 291.744 589.373 291.314 589.095C290.885 588.842 290.556 588.489 290.329 588.034C290.102 587.554 289.95 587.024 289.875 586.443H289.609C289.155 587.075 288.574 587.63 287.867 588.11C287.185 588.565 286.414 588.918 285.556 589.171C284.697 589.423 283.763 589.55 282.752 589.55ZM283.586 586.746C284.394 586.746 285.152 586.62 285.859 586.367C286.591 586.115 287.235 585.761 287.791 585.307C288.347 584.827 288.789 584.259 289.117 583.602C289.445 582.945 289.609 582.225 289.609 581.442V579.776C287.564 579.776 285.821 579.889 284.381 580.117C282.942 580.344 281.831 580.748 281.048 581.329C280.29 581.91 279.911 582.731 279.911 583.791C279.911 584.473 280.063 585.029 280.366 585.458C280.669 585.888 281.098 586.216 281.654 586.443C282.209 586.645 282.853 586.746 283.586 586.746Z" fill="#2C2925"/>
<path d="M269.244 565.417V561.704H272.578V565.417H269.244ZM269.244 589.094V569.167H272.578V589.094H269.244Z" fill="#2C2925"/>
<path d="M256.902 589.549C255.538 589.549 254.339 589.41 253.303 589.132C252.268 588.854 251.409 588.45 250.727 587.92C250.045 587.389 249.528 586.758 249.174 586.025C248.82 585.293 248.644 584.46 248.644 583.525C248.644 583.399 248.644 583.285 248.644 583.184C248.644 583.058 248.656 582.957 248.681 582.881H251.977C251.952 582.982 251.939 583.07 251.939 583.146C251.939 583.222 251.939 583.298 251.939 583.374C251.965 584.257 252.192 584.952 252.621 585.457C253.076 585.962 253.695 586.316 254.478 586.518C255.261 586.72 256.132 586.821 257.092 586.821C257.925 586.821 258.695 586.72 259.403 586.518C260.11 586.291 260.665 585.962 261.069 585.533C261.499 585.078 261.713 584.51 261.713 583.828C261.713 582.995 261.436 582.363 260.88 581.934C260.35 581.479 259.643 581.126 258.759 580.873C257.875 580.621 256.953 580.355 255.993 580.078C255.185 579.85 254.377 579.598 253.568 579.32C252.76 579.042 252.028 578.701 251.371 578.297C250.74 577.893 250.222 577.375 249.818 576.744C249.439 576.087 249.25 575.266 249.25 574.281C249.25 573.397 249.426 572.614 249.78 571.933C250.159 571.251 250.689 570.67 251.371 570.19C252.053 569.71 252.874 569.356 253.834 569.129C254.819 568.877 255.905 568.75 257.092 568.75C258.354 568.75 259.453 568.889 260.388 569.167C261.347 569.445 262.143 569.836 262.774 570.341C263.406 570.846 263.873 571.427 264.176 572.084C264.479 572.715 264.631 573.397 264.631 574.13C264.631 574.281 264.631 574.433 264.631 574.584C264.631 574.711 264.618 574.812 264.593 574.887H261.335V574.471C261.335 573.966 261.196 573.486 260.918 573.031C260.665 572.551 260.211 572.172 259.554 571.895C258.923 571.592 258.039 571.44 256.902 571.44C256.17 571.44 255.538 571.503 255.008 571.629C254.478 571.73 254.036 571.907 253.682 572.16C253.329 572.387 253.063 572.665 252.887 572.993C252.71 573.296 252.621 573.65 252.621 574.054C252.621 574.711 252.836 575.216 253.265 575.569C253.695 575.923 254.263 576.213 254.97 576.441C255.703 576.668 256.486 576.921 257.319 577.198C258.203 577.451 259.099 577.716 260.009 577.994C260.943 578.247 261.789 578.575 262.547 578.979C263.33 579.383 263.949 579.939 264.403 580.646C264.883 581.328 265.123 582.237 265.123 583.374C265.123 584.434 264.921 585.356 264.517 586.139C264.113 586.922 263.532 587.566 262.774 588.071C262.042 588.576 261.17 588.943 260.16 589.17C259.175 589.422 258.089 589.549 256.902 589.549Z" fill="#2C2925"/>
<path d="M221.76 589.094L232.026 563.106H236.762L247.066 589.094H243.164L240.626 582.654H227.973L225.472 589.094H221.76ZM229.147 579.586H239.414L236.269 571.44C236.194 571.213 236.08 570.897 235.928 570.493C235.777 570.089 235.613 569.647 235.436 569.167C235.259 568.662 235.082 568.157 234.905 567.652C234.729 567.122 234.565 566.642 234.413 566.212H234.186C234.009 566.718 233.807 567.298 233.58 567.955C233.352 568.612 233.125 569.256 232.898 569.887C232.67 570.493 232.481 571.011 232.329 571.44L229.147 579.586Z" fill="#2C2925"/>
<path d="M194.845 589.094V561.704H198.179V571.668H198.444C198.949 570.986 199.517 570.43 200.148 570.001C200.78 569.571 201.474 569.256 202.232 569.054C203.015 568.826 203.861 568.713 204.77 568.713C206.033 568.713 207.132 568.927 208.066 569.357C209.026 569.786 209.771 570.481 210.301 571.44C210.857 572.4 211.135 573.701 211.135 575.342V589.094H207.801V575.797C207.801 574.964 207.687 574.282 207.46 573.751C207.258 573.221 206.968 572.804 206.589 572.501C206.235 572.198 205.793 571.983 205.263 571.857C204.758 571.731 204.189 571.668 203.558 571.668C202.624 571.668 201.74 571.895 200.906 572.35C200.073 572.779 199.403 573.423 198.898 574.282C198.418 575.115 198.179 576.151 198.179 577.388V589.094H194.845Z" fill="#2C2925"/>
<path d="M188.257 589.549C187.221 589.549 186.413 589.359 185.832 588.981C185.251 588.576 184.834 588.059 184.582 587.427C184.329 586.771 184.203 586.076 184.203 585.344V571.971H181.627V569.167H184.279L184.885 563.598H187.537V569.167H191.287V571.971H187.537V584.851C187.537 585.483 187.65 585.962 187.878 586.291C188.105 586.594 188.534 586.745 189.166 586.745H191.287V588.943C191.035 589.069 190.732 589.17 190.378 589.246C190.025 589.321 189.658 589.385 189.28 589.435C188.926 589.511 188.585 589.549 188.257 589.549Z" fill="#2C2925"/>
<path d="M168.499 589.549C166.58 589.549 165.039 589.056 163.877 588.071C162.716 587.086 162.135 585.369 162.135 582.919V569.167H165.469V582.464C165.469 583.298 165.57 583.98 165.772 584.51C165.974 585.04 166.264 585.457 166.643 585.76C167.022 586.063 167.464 586.278 167.969 586.404C168.499 586.531 169.068 586.594 169.674 586.594C170.633 586.594 171.517 586.366 172.326 585.912C173.134 585.457 173.79 584.801 174.296 583.942C174.826 583.058 175.091 582.035 175.091 580.873V569.167H178.425V589.094H175.735L175.432 586.101H175.167C174.636 586.909 174.03 587.566 173.348 588.071C172.692 588.576 171.947 588.943 171.113 589.17C170.305 589.422 169.434 589.549 168.499 589.549Z" fill="#2C2925"/>
<path d="M148.901 589.55C146.881 589.55 145.176 589.183 143.787 588.451C142.423 587.693 141.375 586.544 140.643 585.004C139.936 583.463 139.582 581.506 139.582 579.132C139.582 576.732 139.936 574.775 140.643 573.259C141.375 571.719 142.423 570.582 143.787 569.85C145.176 569.092 146.881 568.713 148.901 568.713C150.922 568.713 152.614 569.092 153.978 569.85C155.367 570.582 156.415 571.719 157.122 573.259C157.829 574.775 158.183 576.732 158.183 579.132C158.183 581.506 157.829 583.463 157.122 585.004C156.415 586.544 155.367 587.693 153.978 588.451C152.614 589.183 150.922 589.55 148.901 589.55ZM148.901 586.746C150.19 586.746 151.263 586.494 152.122 585.989C152.98 585.483 153.624 584.7 154.054 583.64C154.508 582.554 154.736 581.19 154.736 579.548V578.715C154.736 577.048 154.508 575.684 154.054 574.623C153.624 573.563 152.98 572.78 152.122 572.274C151.263 571.769 150.19 571.517 148.901 571.517C147.613 571.517 146.527 571.769 145.643 572.274C144.785 572.78 144.141 573.563 143.711 574.623C143.282 575.684 143.067 577.048 143.067 578.715V579.548C143.067 581.19 143.282 582.554 143.711 583.64C144.141 584.7 144.785 585.483 145.643 585.989C146.527 586.494 147.613 586.746 148.901 586.746Z" fill="#2C2925"/>
<path d="M125.42 589.549C124.005 589.549 122.642 589.41 121.328 589.133C120.04 588.855 118.891 588.413 117.881 587.807C116.871 587.175 116.062 586.367 115.456 585.382C114.875 584.397 114.585 583.185 114.585 581.745C114.585 581.619 114.585 581.493 114.585 581.366C114.61 581.24 114.623 581.114 114.623 580.988H118.26C118.26 581.063 118.247 581.19 118.222 581.366C118.222 581.518 118.222 581.657 118.222 581.783C118.222 582.793 118.525 583.652 119.131 584.359C119.737 585.066 120.571 585.597 121.631 585.95C122.717 586.279 123.942 586.443 125.306 586.443C125.912 586.443 126.544 586.405 127.2 586.329C127.882 586.253 128.526 586.127 129.132 585.95C129.764 585.748 130.319 585.496 130.799 585.193C131.304 584.864 131.696 584.473 131.974 584.018C132.277 583.538 132.428 582.958 132.428 582.276C132.428 581.417 132.176 580.71 131.671 580.154C131.191 579.573 130.547 579.106 129.739 578.752C128.93 578.374 128.008 578.045 126.973 577.767C125.963 577.464 124.915 577.174 123.829 576.896C122.743 576.618 121.682 576.303 120.646 575.949C119.636 575.57 118.727 575.115 117.919 574.585C117.111 574.029 116.454 573.348 115.949 572.539C115.469 571.731 115.229 570.746 115.229 569.584C115.229 568.498 115.444 567.526 115.873 566.667C116.328 565.809 116.984 565.089 117.843 564.508C118.727 563.902 119.813 563.447 121.101 563.144C122.389 562.816 123.867 562.652 125.533 562.652C126.897 562.652 128.16 562.803 129.322 563.106C130.509 563.384 131.544 563.826 132.428 564.432C133.337 565.013 134.045 565.758 134.55 566.667C135.055 567.577 135.307 568.675 135.307 569.963V570.418H131.746V569.85C131.746 568.991 131.481 568.258 130.951 567.652C130.42 567.046 129.688 566.579 128.754 566.251C127.844 565.922 126.809 565.758 125.647 565.758C124.132 565.758 122.869 565.91 121.859 566.213C120.848 566.491 120.091 566.907 119.586 567.463C119.106 567.993 118.866 568.599 118.866 569.281C118.866 570.064 119.106 570.721 119.586 571.251C120.091 571.782 120.747 572.224 121.556 572.577C122.364 572.906 123.286 573.209 124.321 573.486C125.357 573.764 126.405 574.055 127.465 574.358C128.551 574.636 129.6 574.964 130.61 575.343C131.645 575.696 132.567 576.151 133.375 576.707C134.209 577.237 134.865 577.919 135.345 578.752C135.825 579.561 136.065 580.558 136.065 581.745C136.065 583.589 135.611 585.092 134.701 586.253C133.792 587.39 132.542 588.223 130.951 588.754C129.36 589.284 127.516 589.549 125.42 589.549Z" fill="#2C2925"/>
<path d="M85.9639 589.094V561.704H89.2976V571.668H89.5628C90.068 570.986 90.6362 570.43 91.2676 570.001C91.899 569.571 92.5936 569.256 93.3512 569.054C94.1342 568.826 94.9802 568.713 95.8895 568.713C97.1522 568.713 98.2509 568.927 99.1854 569.357C100.145 569.786 100.89 570.481 101.42 571.44C101.976 572.4 102.254 573.701 102.254 575.342V589.094H98.9202V575.797C98.9202 574.964 98.8065 574.282 98.5792 573.751C98.3772 573.221 98.0867 572.804 97.7079 572.501C97.3543 572.198 96.9123 571.983 96.3819 571.857C95.8768 571.731 95.3086 571.668 94.6772 571.668C93.7427 571.668 92.8587 571.895 92.0253 572.35C91.1919 572.779 90.5226 573.423 90.0174 574.282C89.5376 575.115 89.2976 576.151 89.2976 577.388V589.094H85.9639Z" fill="#2C2925"/>
<path d="M73.623 589.549C72.2591 589.549 71.0595 589.41 70.024 589.132C68.9885 588.854 68.1298 588.45 67.4479 587.92C66.766 587.389 66.2482 586.758 65.8946 586.025C65.5411 585.293 65.3643 584.46 65.3643 583.525C65.3643 583.399 65.3643 583.285 65.3643 583.184C65.3643 583.058 65.3769 582.957 65.4022 582.881H68.698C68.6728 582.982 68.6602 583.07 68.6602 583.146C68.6602 583.222 68.6602 583.298 68.6602 583.374C68.6854 584.257 68.9127 584.952 69.3421 585.457C69.7967 585.962 70.4154 586.316 71.1984 586.518C71.9813 586.72 72.8526 586.821 73.8124 586.821C74.6458 586.821 75.4161 586.72 76.1233 586.518C76.8304 586.291 77.3861 585.962 77.7902 585.533C78.2195 585.078 78.4342 584.51 78.4342 583.828C78.4342 582.995 78.1564 582.363 77.6008 581.934C77.0704 581.479 76.3632 581.126 75.4793 580.873C74.5953 580.621 73.6735 580.355 72.7137 580.078C71.9056 579.85 71.0974 579.598 70.2892 579.32C69.481 579.042 68.7486 578.701 68.0919 578.297C67.4605 577.893 66.9428 577.375 66.5387 576.744C66.1598 576.087 65.9704 575.266 65.9704 574.281C65.9704 573.397 66.1472 572.614 66.5008 571.933C66.8796 571.251 67.41 570.67 68.0919 570.19C68.7738 569.71 69.5946 569.356 70.5544 569.129C71.5393 568.877 72.6253 568.75 73.8124 568.75C75.0752 568.75 76.1738 568.889 77.1083 569.167C78.068 569.445 78.8636 569.836 79.495 570.341C80.1264 570.846 80.5936 571.427 80.8967 572.084C81.1997 572.715 81.3513 573.397 81.3513 574.13C81.3513 574.281 81.3513 574.433 81.3513 574.584C81.3513 574.711 81.3386 574.812 81.3134 574.887H78.0554V574.471C78.0554 573.966 77.9165 573.486 77.6386 573.031C77.3861 572.551 76.9315 572.172 76.2748 571.895C75.6434 571.592 74.7595 571.44 73.623 571.44C72.8905 571.44 72.2591 571.503 71.7288 571.629C71.1984 571.73 70.7564 571.907 70.4028 572.16C70.0492 572.387 69.7841 572.665 69.6073 572.993C69.4305 573.296 69.3421 573.65 69.3421 574.054C69.3421 574.711 69.5567 575.216 69.9861 575.569C70.4154 575.923 70.9837 576.213 71.6909 576.441C72.4233 576.668 73.2062 576.921 74.0397 577.198C74.9236 577.451 75.8202 577.716 76.7294 577.994C77.6639 578.247 78.51 578.575 79.2676 578.979C80.0506 579.383 80.6694 579.939 81.124 580.646C81.6038 581.328 81.8438 582.237 81.8438 583.374C81.8438 584.434 81.6417 585.356 81.2376 586.139C80.8335 586.922 80.2526 587.566 79.495 588.071C78.7625 588.576 77.8912 588.943 76.881 589.17C75.896 589.422 74.81 589.549 73.623 589.549Z" fill="#2C2925"/>
<path d="M58.1426 565.417V561.704H61.4764V565.417H58.1426ZM58.1426 589.094V569.167H61.4764V589.094H58.1426Z" fill="#2C2925"/>
<path d="M51.5555 589.549C50.52 589.549 49.7118 589.359 49.1309 588.981C48.55 588.576 48.1333 588.059 47.8807 587.427C47.6282 586.771 47.5019 586.076 47.5019 585.344V571.971H44.9258V569.167H47.5777L48.1838 563.598H50.8357V569.167H54.5862V571.971H50.8357V584.851C50.8357 585.483 50.9493 585.962 51.1766 586.291C51.4039 586.594 51.8333 586.745 52.4647 586.745H54.5862V588.943C54.3336 589.069 54.0305 589.17 53.677 589.246C53.3234 589.321 52.9572 589.385 52.5783 589.435C52.2247 589.511 51.8838 589.549 51.5555 589.549Z" fill="#2C2925"/>
<path d="M38.3867 565.417V561.704H41.7205V565.417H38.3867ZM38.3867 589.094V569.167H41.7205V589.094H38.3867Z" fill="#2C2925"/>
<path d="M25.8086 589.095V569.168H28.4983L28.8014 572.464H29.0666C29.2687 571.833 29.5465 571.239 29.9001 570.683C30.2536 570.102 30.7335 569.635 31.3397 569.282C31.9458 568.903 32.6908 568.713 33.5748 568.713C33.9536 568.713 34.2946 568.751 34.5977 568.827C34.926 568.878 35.1659 568.941 35.3175 569.016V572.085H34.0673C33.2086 572.085 32.4635 572.237 31.8321 572.54C31.226 572.817 30.7209 573.222 30.3168 573.752C29.9127 574.282 29.6096 574.914 29.4076 575.646C29.2308 576.379 29.1424 577.162 29.1424 577.995V589.095H25.8086Z" fill="#2C2925"/>
<path d="M0 589.094V563.106H13.4109C14.901 563.106 16.1891 563.371 17.2751 563.902C18.3611 564.407 19.1945 565.126 19.7754 566.061C20.3815 566.995 20.6846 568.107 20.6846 569.395C20.6846 570.38 20.5078 571.289 20.1542 572.122C19.8007 572.956 19.3082 573.65 18.6768 574.206C18.0454 574.762 17.3256 575.178 16.5174 575.456V575.608C17.4266 575.81 18.2474 576.176 18.9798 576.706C19.7123 577.237 20.2931 577.944 20.7225 578.828C21.1771 579.687 21.4044 580.747 21.4044 582.01C21.4044 583.702 21.0508 585.066 20.3436 586.102C19.6365 587.137 18.6894 587.895 17.5024 588.375C16.3153 588.855 14.9515 589.094 13.4109 589.094H0ZM3.59898 585.988H13.373C14.6611 585.988 15.7092 585.66 16.5174 585.003C17.3256 584.321 17.7297 583.197 17.7297 581.631C17.7297 580.672 17.5529 579.876 17.1993 579.245C16.8457 578.588 16.328 578.108 15.6461 577.805C14.9641 577.477 14.1054 577.313 13.07 577.313H3.59898V585.988ZM3.59898 574.244H12.729C13.5877 574.244 14.3327 574.08 14.9641 573.751C15.5955 573.398 16.088 572.918 16.4416 572.312C16.8205 571.68 17.0099 570.973 17.0099 570.19C17.0099 568.826 16.6437 567.829 15.9112 567.197C15.1788 566.541 14.2065 566.212 12.9942 566.212H3.59898V574.244Z" fill="#2C2925"/>
<rect width="172" height="173" transform="translate(346)" fill="#FFB210"/>
<path d="M432 23.4821C438.415 40.3685 458.331 47.6157 474.099 38.8036C468.16 55.8633 478.758 74.215 496.5 77.6023C480.984 86.853 477.305 107.723 488.72 121.721C470.888 118.833 454.653 132.458 454.401 150.518C442.598 136.845 421.405 136.845 409.599 150.518C409.347 132.458 393.112 118.833 375.28 121.721C386.697 107.723 383.016 86.8503 367.5 77.6023C385.242 74.2176 395.84 55.8633 389.901 38.8036C405.669 47.6157 425.585 40.3659 432 23.4821Z" fill="#F95379"/>
<rect width="173" height="173" transform="translate(518)" fill="#F95379"/>
<path d="M669.375 60.7364C669.375 39.4115 652.089 22.125 630.764 22.125C620.619 22.125 611.39 26.0391 604.5 32.4347C597.61 26.0364 588.381 22.125 578.236 22.125C556.911 22.125 539.625 39.4115 539.625 60.7364C539.625 70.8813 543.539 80.1097 549.935 87C543.536 93.8902 539.625 103.119 539.625 113.264C539.625 134.588 556.911 151.875 578.236 151.875C588.381 151.875 597.61 147.961 604.5 141.565C611.39 147.964 620.619 151.875 630.764 151.875C652.089 151.875 669.375 134.588 669.375 113.264C669.375 103.119 665.461 93.8902 659.065 87C665.464 80.1097 669.375 70.8813 669.375 60.7364Z" fill="#E70526"/>
<rect width="173" height="173" transform="translate(691)" fill="#6E5FC1"/>
<path d="M811.973 91.6539C806.554 89.8944 801.362 88.4957 796.723 87.5C801.362 86.5043 806.554 85.1056 811.973 83.3462C829.867 77.5312 843.449 69.9639 842.305 66.4426C841.162 62.9213 825.727 64.7815 807.831 70.5964C802.412 72.3559 797.389 74.277 793.052 76.1982C796.219 72.6652 799.598 68.4832 802.948 63.8748C814.009 48.651 820.547 34.5471 817.551 32.3706C814.554 30.1941 803.164 40.7721 792.103 55.9958C788.755 60.6042 785.822 65.1118 783.439 69.2165C783.927 64.498 784.201 59.1259 784.201 53.4304C784.201 34.6127 781.199 19.3608 777.498 19.3608C773.796 19.3608 770.795 34.6151 770.795 53.4304C770.795 59.1282 771.069 64.498 771.556 69.2165C769.176 65.1118 766.243 60.6066 762.893 55.9958C751.832 40.7721 740.439 30.1965 737.445 32.3706C734.45 34.5448 740.989 48.651 752.048 63.8748C755.395 68.4832 758.776 72.6675 761.944 76.1982C757.605 74.277 752.584 72.3559 747.165 70.5964C729.27 64.7815 713.836 62.9236 712.692 66.4426C711.549 69.9639 725.128 77.5312 743.025 83.3462C748.444 85.1056 753.636 86.5043 758.275 87.5C753.636 88.4957 748.444 89.8944 743.025 91.6539C725.128 97.4688 711.547 105.036 712.692 108.557C713.836 112.079 729.27 110.219 747.167 104.404C752.586 102.644 757.609 100.723 761.946 98.8019C758.778 102.335 755.4 106.517 752.05 111.125C740.989 126.349 734.45 140.453 737.447 142.629C740.441 144.806 751.834 134.228 762.895 119.004C766.243 114.396 769.176 109.888 771.559 105.784C771.071 110.502 770.797 115.874 770.797 121.57C770.797 140.387 773.798 155.639 777.5 155.639C781.202 155.639 784.203 140.385 784.203 121.57C784.203 115.872 783.929 110.502 783.442 105.784C785.822 109.888 788.755 114.393 792.105 119.004C803.166 134.228 814.559 144.804 817.553 142.629C820.547 140.453 814.009 126.349 802.95 111.125C799.602 106.517 796.222 102.333 793.054 98.8019C797.393 100.723 802.414 102.644 807.833 104.404C825.728 110.219 841.164 112.079 842.308 108.557C843.451 105.036 829.872 97.4688 811.975 91.6539H811.973Z" fill="#13BF6C"/>
<rect width="173" height="173" transform="translate(691 173)" fill="#15D0C6"/>
<path d="M778.753 196.844L792.667 220.302L818.415 211.269C819.458 210.903 820.512 211.787 820.332 212.877L815.9 239.784L841.433 249.404C842.468 249.794 842.706 251.148 841.867 251.867L821.166 269.634L834.539 293.404C835.081 294.366 834.392 295.557 833.288 295.57L806.001 295.882L800.956 322.682C800.752 323.767 799.46 324.237 798.603 323.537L777.5 306.25L756.396 323.537C755.542 324.237 754.249 323.767 754.044 322.682L748.998 295.882L721.711 295.57C720.606 295.557 719.918 294.368 720.46 293.404L733.833 269.634L713.132 251.867C712.293 251.148 712.534 249.794 713.566 249.404L739.099 239.784L734.668 212.877C734.488 211.787 735.541 210.903 736.584 211.269L762.332 220.302L776.249 196.844C776.812 195.895 778.187 195.895 778.751 196.844H778.753Z" fill="#02AA9A"/>
<rect width="173" height="173" transform="translate(0 173)" fill="#EF98FC"/>
<path d="M92.8322 198.998L96.1325 203.053C101.124 209.183 109.077 212.079 116.842 210.589L121.975 209.605C127.058 208.629 131.756 212.57 131.678 217.747L131.599 222.974C131.479 230.879 135.713 238.209 142.618 242.059L147.185 244.604C151.705 247.123 152.771 253.162 149.384 257.078L145.964 261.031C140.793 267.011 139.323 275.346 142.138 282.735L143.999 287.619C145.842 292.455 142.776 297.766 137.665 298.587L132.504 299.419C124.698 300.675 118.215 306.116 115.621 313.584L113.908 318.521C112.209 323.411 106.45 325.508 102.006 322.854L97.5182 320.171C90.7321 316.116 82.2679 316.116 75.4818 320.171L70.9941 322.854C66.5497 325.508 60.7908 323.413 59.0924 318.521L57.3787 313.584C54.7878 306.116 48.3017 300.675 40.496 299.419L35.3346 298.587C30.2241 297.766 27.1577 292.455 29.0011 287.619L30.8622 282.735C33.6768 275.348 32.2073 267.011 27.0357 261.031L23.6159 257.078C20.2292 253.162 21.2945 247.126 25.8152 244.604L30.3817 242.059C37.2873 238.209 41.5181 230.879 41.4012 222.974L41.3223 217.747C41.2435 212.57 45.9422 208.629 51.0248 209.605L56.1582 210.589C63.9207 212.079 71.8764 209.183 76.8674 203.053L80.1677 198.998C83.4349 194.983 89.565 194.983 92.8322 198.998Z" fill="#FB6324"/>
<rect width="173" height="173" transform="translate(0 346)" fill="#58C7FF"/>
<path d="M90.5668 388.022L92.2769 407.307C92.7405 412.525 96.1531 413.769 99.8619 410.068L113.566 396.395C131.492 378.508 134.294 380.859 119.794 401.621L108.706 417.491C105.706 421.787 107.522 424.932 112.742 424.481L132.031 422.815C157.261 420.636 157.894 424.239 133.442 430.82L114.746 435.852C109.688 437.215 109.057 440.79 113.345 443.8L129.192 454.924C149.92 469.473 148.089 472.641 125.128 461.966L107.573 453.804C102.821 451.594 100.04 453.93 101.389 458.991L106.378 477.697C112.905 502.165 109.466 503.417 98.739 480.479L90.5359 462.942C88.3157 458.195 84.6843 458.195 82.4641 462.942L74.261 480.479C63.5338 503.417 60.0955 502.165 66.6219 477.697L71.6107 458.991C72.9603 453.93 70.1787 451.594 65.4269 453.804L47.8719 461.966C24.9084 472.641 23.0797 469.473 43.8077 454.924L59.6551 443.8C63.9434 440.79 63.3124 437.215 58.254 435.852L39.5581 430.82C15.1058 424.237 15.7394 420.636 40.9695 422.815L60.2577 424.481C65.4783 424.932 67.2941 421.787 64.2936 417.491L53.2059 401.621C38.7056 380.862 41.5077 378.51 59.4335 396.395L73.138 410.068C76.8468 413.769 80.2595 412.525 80.7231 407.307L82.4332 388.022C84.6688 362.797 88.3261 362.797 90.5616 388.022H90.5668Z" fill="#1E9BFF"/>
<rect width="173" height="173" transform="translate(173 346)" fill="#13BF6C"/>
<path d="M322.45 413.372C316.096 409.423 294.932 402.579 280.839 407.159C280.83 407.161 280.821 407.165 280.813 407.167C279.649 392.81 267.578 376.29 262.136 371.702C260.614 370.419 258.391 370.419 256.869 371.702C251.429 376.29 239.356 392.813 238.192 407.167C238.183 407.165 238.174 407.161 238.165 407.159C224.072 402.579 202.911 409.423 196.555 413.372C194.864 414.422 194.176 416.537 194.927 418.382C197.73 425.269 210.688 443.07 224.685 447.781C223.927 448.686 223.176 449.643 222.438 450.66C213.727 462.65 213.697 484.889 215.489 492.154C215.965 494.087 217.764 495.394 219.75 495.249C227.213 494.709 248.354 487.808 257.064 475.818C257.96 474.586 258.769 473.365 259.5 472.157C260.229 473.365 261.04 474.586 261.936 475.818C270.646 487.808 291.79 494.709 299.25 495.249C301.236 495.392 303.035 494.087 303.511 492.154C305.303 484.891 305.273 462.65 296.562 450.66C295.824 449.643 295.073 448.686 294.315 447.781C308.312 443.07 321.27 425.271 324.073 418.382C324.824 416.537 324.136 414.424 322.445 413.372H322.45Z" fill="#EF98FC"/>
<rect width="172" height="173" transform="translate(346 346)" fill="#FB6324"/>
<path d="M433.621 374.539C446.025 364.239 464.932 371.12 467.812 386.984C468.029 388.186 469.074 389.058 470.293 389.066C486.416 389.148 496.477 406.573 488.486 420.576C487.88 421.636 488.117 422.978 489.05 423.766C501.347 434.193 497.856 454.007 482.73 459.598C481.586 460.022 480.905 461.202 481.112 462.404C483.83 478.298 468.418 491.228 453.238 485.792C452.088 485.38 450.809 485.847 450.193 486.899C442.06 500.822 421.939 500.822 413.807 486.899C413.191 485.844 411.911 485.38 410.762 485.792C395.581 491.228 380.169 478.298 382.887 462.404C383.094 461.202 382.413 460.022 381.269 459.598C366.146 454.007 362.652 434.193 374.949 423.766C375.879 422.975 376.116 421.636 375.513 420.576C367.522 406.571 377.583 389.148 393.706 389.066C394.925 389.058 395.97 388.186 396.187 386.984C399.068 371.12 417.974 364.237 430.379 374.539C431.319 375.32 432.678 375.32 433.618 374.539H433.621Z" fill="#F72605"/>
<path d="M36.0629 128.88V67.2569H0V43.9199H102.627V67.2569H66.5639V128.88H36.0629Z" fill="#E70526"/>
<path d="M112.14 128.88V43.9198H142.641V74.0518H187.965V43.9198H218.465V128.889H187.965V97.3977H142.641V128.889H112.14V128.88Z" fill="#E70526"/>
<path d="M229.338 128.88V43.9198H320.112V65.0338H259.965V76.0228H311.832V96.0297H259.965V107.766H321.102V128.889H229.338V128.88Z" fill="#E70526"/>
<path d="M215.999 301.68V216.711H242.549L284.543 252.153C285.038 252.567 285.74 253.179 286.64 254.007C287.549 254.835 288.494 255.699 289.484 256.599C290.474 257.508 291.374 258.327 292.202 259.065H293.435V216.702H322.082V301.671H295.775L255.887 268.2C254.159 266.805 252.323 265.239 250.388 263.511C248.453 261.783 246.905 260.379 245.753 259.308H244.646V301.671H215.99L215.999 301.68Z" fill="#E70526"/>
<path d="M334.188 301.68V216.711H424.961V237.834H364.814V248.823H416.681V268.83H364.814V280.566H425.951V301.689H334.188V301.68Z" fill="#E70526"/>
<path d="M429.029 301.68L469.538 257.841L432.737 216.711H472.13L488.798 236.844H489.788L507.572 216.711H543.635L506.582 256.599L546.965 301.68H507.689L487.439 277.722H486.332L465.335 301.68H429.029Z" fill="#E70526"/>
<path d="M581.435 301.68V240.057H545.372V216.72H647.999V240.057H611.936V301.68H581.435Z" fill="#E70526"/>
<path d="M543.52 474.479L584.64 389.51H618.237L659.358 474.479H626.634L621.567 463.238H579.952L575.011 474.479H543.52ZM589.212 442.124H612.306L606.375 427.796C606.132 427.139 605.799 426.248 605.385 425.141C604.971 424.034 604.521 422.774 604.026 421.379C603.531 419.984 603.054 418.58 602.604 417.176C602.154 415.781 601.722 414.503 601.308 413.351H600.444C599.949 414.755 599.373 416.357 598.716 418.166C598.059 419.975 597.42 421.748 596.799 423.476C596.178 425.204 595.629 426.644 595.134 427.796L589.203 442.124H589.212Z" fill="#E70526"/>
<path d="M707.653 475.964C695.386 475.964 685.216 474.299 677.152 470.961C669.079 467.622 663.049 462.708 659.062 456.201C655.066 449.694 653.077 441.63 653.077 431.991C653.077 417.915 657.73 407.061 667.036 399.447C676.342 391.833 689.968 388.026 707.914 388.026C717.796 388.026 726.481 389.574 733.969 392.661C741.457 395.748 747.325 400.032 751.564 405.504C755.803 410.985 757.927 417.294 757.927 424.458H728.29C728.29 421.497 727.426 418.86 725.698 416.556C723.97 414.252 721.54 412.443 718.408 411.12C715.276 409.806 711.613 409.14 707.419 409.14C702.145 409.14 697.807 410.085 694.387 411.984C690.967 413.883 688.456 416.43 686.854 419.643C685.252 422.856 684.442 426.438 684.442 430.389V433.476C684.442 437.265 685.243 440.784 686.854 444.033C688.456 447.291 690.904 449.901 694.198 451.872C697.492 453.852 701.686 454.833 706.798 454.833C711.487 454.833 715.501 454.212 718.84 452.979C722.17 451.746 724.726 450.018 726.499 447.795C728.272 445.572 729.154 442.98 729.154 440.01H757.927C757.927 446.922 755.929 453.105 751.933 458.532C747.937 463.968 742.195 468.225 734.707 471.312C727.21 474.399 718.201 475.947 707.662 475.947L707.653 475.964Z" fill="#E70526"/>
<path d="M797.437 474.479V412.857H761.374V389.52H864.001V412.857H827.938V474.479H797.437Z" fill="#E70526"/>
</svg>
