<svg width="16" height="16" viewBox="0 0 16 16" fill="none" xmlns="http://www.w3.org/2000/svg">
<g clip-path="url(#clip0_220_2032)">
<path d="M14 0H2C0.89543 0 0 0.89543 0 2V14C0 15.1046 0.89543 16 2 16H14C15.1046 16 16 15.1046 16 14V2C16 0.89543 15.1046 0 14 0Z" fill="#FFFBED"/>
<path d="M8.82864 3.08987L8.97154 3.27182C9.15713 3.50814 9.46996 3.60475 9.75659 3.51449L9.97727 3.44489C11.1804 3.06596 12.3734 4.05596 12.2233 5.30838L12.1957 5.53812C12.1599 5.83649 12.3125 6.12587 12.5791 6.26489L12.7843 6.37175C13.9029 6.95458 14.0466 8.49803 13.0548 9.27756L12.8728 9.42047C12.6365 9.60605 12.5399 9.91888 12.6302 10.2055L12.6997 10.4262C13.0787 11.6294 12.0887 12.8224 10.8363 12.6723L10.6065 12.6446C10.3082 12.6088 10.0188 12.7614 9.87975 13.028L9.77289 13.2332C9.19006 14.3518 7.64662 14.4955 6.86708 13.5037L6.72417 13.3217C6.53859 13.0854 6.22576 12.9888 5.93913 13.0791L5.71844 13.1487C4.51527 13.5276 3.32229 12.5376 3.47239 11.2852L3.50006 11.0554C3.53586 10.7571 3.38319 10.4677 3.11666 10.3287L2.91145 10.2218C1.79281 9.63898 1.64913 8.09554 2.64095 7.316L2.8229 7.1731C3.05922 6.98751 3.15582 6.67468 3.06556 6.38805L2.99597 6.16737C2.61703 4.96419 3.60703 3.77121 4.85946 3.92131L5.0892 3.94898C5.38756 3.98478 5.67695 3.83212 5.81596 3.56558L5.92282 3.36038C6.50566 2.24173 8.0491 2.09805 8.82864 3.08987Z" fill="#E70526"/>
</g>
<defs>
<clipPath id="clip0_220_2032">
<rect width="16" height="16" fill="white"/>
</clipPath>
</defs>
</svg>
