<svg width="24" height="24" viewBox="0 0 24 24" fill="none" xmlns="http://www.w3.org/2000/svg">
<path d="M23.9376 7.05317C23.9181 6.05791 23.7293 5.07327 23.3791 4.14142C23.0701 3.34405 22.5982 2.61986 21.9935 2.01518C21.3888 1.41049 20.6647 0.938576 19.8673 0.629559C18.9353 0.280005 17.9508 0.0911977 16.9556 0.0711527C15.6705 0.0104546 15.263 -0.00341797 12.0043 -0.00341797C8.74572 -0.00341797 8.33645 0.0104301 7.05659 0.0676597C6.06134 0.0872681 5.07667 0.276142 4.14478 0.626119C3.34742 0.935136 2.62328 1.40705 2.01859 2.01174C1.41391 2.61642 0.941994 3.34056 0.632977 4.13793C0.28339 5.06992 0.0945822 6.05447 0.0745707 7.04967C0.0138726 8.33474 0 8.74231 0 12.0027C0 15.263 0.013848 15.6706 0.0710776 16.9504C0.0907198 17.9457 0.279592 18.9303 0.629537 19.8622C0.938461 20.6596 1.41035 21.3838 2.01505 21.9885C2.61974 22.5932 3.34393 23.0651 4.14134 23.374C5.07333 23.7237 6.05789 23.9125 7.05309 23.9324C8.33295 23.9897 8.74223 24.0035 12.0008 24.0035C15.2595 24.0035 15.6671 23.9897 16.9487 23.9324C17.9439 23.9129 18.9285 23.7241 19.8604 23.374C20.6581 23.0656 21.3825 22.5939 21.9873 21.9891C22.592 21.3843 23.0638 20.6599 23.3722 19.8622C23.7219 18.9302 23.9107 17.9456 23.9307 16.9504C23.9862 15.6706 24 15.263 24 12.0027C24 8.74231 24 8.33478 23.9393 7.05491L23.9376 7.05317ZM21.775 16.8533C21.7669 17.6138 21.6273 18.3672 21.3622 19.0801C21.1618 19.5975 20.8556 20.0675 20.4633 20.4598C20.0709 20.8522 19.6009 21.1584 19.0835 21.3588C18.3705 21.6234 17.6172 21.7631 16.8567 21.7716C15.5907 21.8271 15.2109 21.841 12.0008 21.841C8.79079 21.841 8.41274 21.8271 7.14502 21.7716C6.38452 21.7635 5.63115 21.6239 4.91828 21.3588C4.3973 21.1679 3.92603 20.8621 3.53954 20.464C3.14093 20.0742 2.83459 19.6002 2.64294 19.0766C2.37824 18.3636 2.23865 17.6103 2.23024 16.8498C2.17301 15.5838 2.15911 15.2041 2.15911 11.994C2.15911 8.78393 2.17301 8.40589 2.23024 7.13816C2.23802 6.37763 2.37763 5.62422 2.64294 4.91142C2.83289 4.38619 3.14083 3.91152 3.54303 3.524C3.93032 3.12687 4.4013 2.82117 4.92172 2.62915C5.63469 2.36448 6.38805 2.22484 7.14852 2.2164C8.4145 2.1609 8.79428 2.14532 12.0043 2.14532C15.2144 2.14532 15.5924 2.15917 16.8602 2.2164C17.6213 2.22425 18.3752 2.36391 19.0887 2.62915C19.6097 2.82 20.0809 3.12586 20.4674 3.524C20.8662 3.91361 21.1726 4.38774 21.364 4.91142C21.6287 5.62439 21.7683 6.37769 21.7767 7.13816C21.8322 8.40415 21.8461 8.78393 21.8461 11.994C21.8461 15.2041 21.8322 15.5717 21.7767 16.8377L21.775 16.8533Z" fill="#2C2925"/>
<path d="M12.0066 5.78027C10.7759 5.78027 9.57292 6.14519 8.54965 6.82892C7.52637 7.51265 6.72882 8.48448 6.25786 9.62148C5.7869 10.7585 5.66364 12.0096 5.90374 13.2166C6.14383 14.4236 6.73647 15.5324 7.60669 16.4026C8.47691 17.2728 9.58566 17.8655 10.7927 18.1055C11.9997 18.3456 13.2509 18.2224 14.3879 17.7514C15.5249 17.2805 16.4966 16.483 17.1804 15.4597C17.8641 14.4364 18.229 13.2333 18.229 12.0027C18.2286 10.3525 17.5729 8.77009 16.406 7.60326C15.2392 6.43643 13.6568 5.78073 12.0066 5.78027ZM12.0066 16.0383C11.2085 16.0383 10.4282 15.8016 9.76458 15.3581C9.10094 14.9147 8.58369 14.2844 8.27825 13.547C7.97281 12.8096 7.8929 11.9982 8.04861 11.2154C8.20432 10.4326 8.58866 9.71351 9.15304 9.14913C9.71742 8.58475 10.4365 8.20036 11.2193 8.04465C12.0021 7.88894 12.8136 7.9689 13.551 8.27434C14.2884 8.57978 14.9186 9.09703 15.362 9.76067C15.8055 10.4243 16.0422 11.2045 16.0422 12.0027C16.0417 13.0728 15.6164 14.099 14.8597 14.8557C14.103 15.6124 13.0768 16.0378 12.0066 16.0383Z" fill="#2C2925"/>
<path d="M19.8607 5.59754C19.8607 5.88497 19.7755 6.16597 19.6158 6.40496C19.4561 6.64395 19.2291 6.83024 18.9635 6.94024C18.698 7.05023 18.4057 7.07898 18.1238 7.0229C17.8419 6.96683 17.5831 6.82842 17.3798 6.62518C17.1766 6.42193 17.0381 6.16297 16.982 5.88106C16.926 5.59915 16.9547 5.30696 17.0647 5.04141C17.1747 4.77586 17.361 4.54891 17.6 4.38922C17.839 4.22953 18.12 4.14429 18.4074 4.14429C18.7928 4.14429 19.1624 4.29736 19.435 4.56991C19.7075 4.84245 19.8607 5.21211 19.8607 5.59754Z" fill="#2C2925"/>
</svg>
