<svg width="24" height="24" viewBox="0 0 24 24" fill="none" xmlns="http://www.w3.org/2000/svg">
<path d="M6 19V20C6 20.2833 5.90417 20.5208 5.7125 20.7125C5.52083 20.9042 5.28333 21 5 21C4.71667 21 4.47917 20.9042 4.2875 20.7125C4.09583 20.5208 4 20.2833 4 20V4C4 3.71667 4.09583 3.47917 4.2875 3.2875C4.47917 3.09583 4.71667 3 5 3C5.28333 3 5.52083 3.09583 5.7125 3.2875C5.90417 3.47917 6 3.71667 6 4V5H8V4C8 3.71667 8.09583 3.47917 8.2875 3.2875C8.47917 3.09583 8.71667 3 9 3H15C15.2833 3 15.5208 3.09583 15.7125 3.2875C15.9042 3.47917 16 3.71667 16 4V5H18V4C18 3.71667 18.0958 3.47917 18.2875 3.2875C18.4792 3.09583 18.7167 3 19 3C19.2833 3 19.5208 3.09583 19.7125 3.2875C19.9042 3.47917 20 3.71667 20 4V20C20 20.2833 19.9042 20.5208 19.7125 20.7125C19.5208 20.9042 19.2833 21 19 21C18.7167 21 18.4792 20.9042 18.2875 20.7125C18.0958 20.5208 18 20.2833 18 20V19H16V20C16 20.2833 15.9042 20.5208 15.7125 20.7125C15.5208 20.9042 15.2833 21 15 21H9C8.71667 21 8.47917 20.9042 8.2875 20.7125C8.09583 20.5208 8 20.2833 8 20V19H6ZM6 17H8V15H6V17ZM6 13H8V11H6V13ZM6 9H8V7H6V9ZM16 17H18V15H16V17ZM16 13H18V11H16V13ZM16 9H18V7H16V9Z" fill="#F95379"/>
</svg>
